<!-- Generator: Adobe Illustrator 19.1.0, SVG Export Plug-In  -->
<svg version="1.1"
	 xmlns="http://www.w3.org/2000/svg" xmlns:xlink="http://www.w3.org/1999/xlink" xmlns:a="http://ns.adobe.com/AdobeSVGViewerExtensions/3.0/"
	 x="0px" y="0px" width="433px" height="3px" viewBox="0 0 433 3" enable-background="new 0 0 433 3" xml:space="preserve">
<defs>
</defs>
<circle id="XMLID_45_" opacity="0.5" cx="1.5" cy="1.5" r="1.5"/>
<circle id="XMLID_44_" opacity="0.5" cx="11.5" cy="1.5" r="1.5"/>
<circle id="XMLID_43_" opacity="0.5" cx="21.5" cy="1.5" r="1.5"/>
<circle id="XMLID_42_" opacity="0.5" cx="31.5" cy="1.5" r="1.5"/>
<circle id="XMLID_41_" opacity="0.5" cx="41.5" cy="1.5" r="1.5"/>
<circle id="XMLID_40_" opacity="0.5" cx="51.5" cy="1.5" r="1.5"/>
<circle id="XMLID_39_" opacity="0.5" cx="61.5" cy="1.5" r="1.5"/>
<circle id="XMLID_38_" opacity="0.5" cx="71.5" cy="1.5" r="1.5"/>
<circle id="XMLID_37_" opacity="0.5" cx="81.5" cy="1.5" r="1.5"/>
<circle id="XMLID_36_" opacity="0.5" cx="91.5" cy="1.5" r="1.5"/>
<circle id="XMLID_35_" opacity="0.5" cx="101.5" cy="1.5" r="1.5"/>
<circle id="XMLID_34_" opacity="0.5" cx="111.5" cy="1.5" r="1.5"/>
<circle id="XMLID_33_" opacity="0.5" cx="121.5" cy="1.5" r="1.5"/>
<circle id="XMLID_32_" opacity="0.5" cx="131.5" cy="1.5" r="1.5"/>
<circle id="XMLID_31_" opacity="0.5" cx="141.5" cy="1.5" r="1.5"/>
<circle id="XMLID_30_" opacity="0.5" cx="151.5" cy="1.5" r="1.5"/>
<circle id="XMLID_29_" opacity="0.5" cx="161.5" cy="1.5" r="1.5"/>
<circle id="XMLID_28_" opacity="0.5" cx="171.5" cy="1.5" r="1.5"/>
<circle id="XMLID_27_" opacity="0.5" cx="181.5" cy="1.5" r="1.5"/>
<circle id="XMLID_26_" opacity="0.5" cx="191.5" cy="1.5" r="1.5"/>
<circle id="XMLID_25_" opacity="0.5" cx="201.5" cy="1.5" r="1.5"/>
<circle id="XMLID_24_" opacity="0.5" cx="211.5" cy="1.5" r="1.5"/>
<circle id="XMLID_23_" opacity="0.5" cx="221.5" cy="1.5" r="1.5"/>
<circle id="XMLID_22_" opacity="0.5" cx="231.5" cy="1.5" r="1.5"/>
<circle id="XMLID_21_" opacity="0.5" cx="241.5" cy="1.5" r="1.5"/>
<circle id="XMLID_20_" opacity="0.5" cx="251.5" cy="1.5" r="1.5"/>
<circle id="XMLID_19_" opacity="0.5" cx="261.5" cy="1.5" r="1.5"/>
<circle id="XMLID_17_" opacity="0.5" cx="271.5" cy="1.5" r="1.5"/>
<circle id="XMLID_16_" opacity="0.5" cx="281.5" cy="1.5" r="1.5"/>
<circle id="XMLID_15_" opacity="0.5" cx="291.5" cy="1.5" r="1.5"/>
<circle id="XMLID_14_" opacity="0.5" cx="301.5" cy="1.5" r="1.5"/>
<circle id="XMLID_13_" opacity="0.5" cx="311.5" cy="1.5" r="1.5"/>
<circle id="XMLID_12_" opacity="0.5" cx="321.5" cy="1.5" r="1.5"/>
<circle id="XMLID_11_" opacity="0.5" cx="331.5" cy="1.5" r="1.5"/>
<circle id="XMLID_10_" opacity="0.5" cx="341.5" cy="1.5" r="1.5"/>
<circle id="XMLID_9_" opacity="0.5" cx="351.5" cy="1.5" r="1.5"/>
<circle id="XMLID_8_" opacity="0.5" cx="361.5" cy="1.5" r="1.5"/>
<circle id="XMLID_7_" opacity="0.5" cx="371.5" cy="1.5" r="1.5"/>
<circle id="XMLID_6_" opacity="0.5" cx="381.5" cy="1.5" r="1.5"/>
<circle id="XMLID_5_" opacity="0.5" cx="391.5" cy="1.5" r="1.5"/>
<circle id="XMLID_4_" opacity="0.5" cx="401.5" cy="1.5" r="1.5"/>
<circle id="XMLID_3_" opacity="0.5" cx="411.5" cy="1.5" r="1.5"/>
<circle id="XMLID_2_" opacity="0.5" cx="421.5" cy="1.5" r="1.5"/>
<circle id="XMLID_1_" opacity="0.5" cx="431.5" cy="1.5" r="1.5"/>
</svg>
