<!-- Generator: Adobe Illustrator 19.1.0, SVG Export Plug-In  -->
<svg version="1.1"
	 xmlns="http://www.w3.org/2000/svg" xmlns:xlink="http://www.w3.org/1999/xlink" xmlns:a="http://ns.adobe.com/AdobeSVGViewerExtensions/3.0/"
	 x="0px" y="0px" width="24px" height="19.5px" viewBox="0 0 24 19.5" enable-background="new 0 0 24 19.5" xml:space="preserve">
<defs>
</defs>
<g>
	<path d="M24,2.3c-0.9,0.4-1.8,0.7-2.8,0.8c1-0.6,1.8-1.6,2.2-2.7c-1,0.6-2,1-3.1,1.2C19.3,0.6,18,0,16.6,0
		c-2.7,0-4.9,2.2-4.9,4.9c0,0.4,0,0.8,0.1,1.1C7.7,5.8,4.1,3.9,1.7,0.9C1.2,1.6,1,2.5,1,3.4c0,1.7,0.9,3.2,2.2,4.1
		C2.4,7.4,1.6,7.2,1,6.9v0.1c0,2.4,1.7,4.4,3.9,4.8c-0.4,0.1-0.8,0.2-1.3,0.2c-0.3,0-0.6,0-0.9-0.1c0.6,1.9,2.4,3.4,4.6,3.4
		c-1.7,1.3-3.8,2.1-6.1,2.1c-0.4,0-0.8,0-1.2-0.1c2.2,1.4,4.8,2.2,7.5,2.2c9.1,0,14-7.5,14-14l0-0.6C22.5,4.2,23.3,3.3,24,2.3"/>
</g>
</svg>
