<!-- Generator: Adobe Illustrator 19.1.0, SVG Export Plug-In  -->
<svg version="1.1"
	 xmlns="http://www.w3.org/2000/svg" xmlns:xlink="http://www.w3.org/1999/xlink" xmlns:a="http://ns.adobe.com/AdobeSVGViewerExtensions/3.0/"
	 x="0px" y="0px" width="24px" height="24px" viewBox="0 0 24 24" enable-background="new 0 0 24 24" xml:space="preserve">
<defs>
</defs>
<g>
	<path d="M24,4c0-2.1-1.9-4-4-4H4C1.9,0,0,1.9,0,4v16c0,2.1,1.9,4,4,4h8v-9.1H9.1v-4H12V9.4c0-2.7,2-5.1,4.5-5.1h3.2
		v4h-3.2c-0.4,0-0.8,0.4-0.8,1.1v1.6h4v4h-4V24H20c2.1,0,4-1.9,4-4V4z"/>
</g>
</svg>
