<!-- Generator: Adobe Illustrator 19.1.0, SVG Export Plug-In  -->
<svg version="1.1"
	 xmlns="http://www.w3.org/2000/svg" xmlns:xlink="http://www.w3.org/1999/xlink" xmlns:a="http://ns.adobe.com/AdobeSVGViewerExtensions/3.0/"
	 x="0px" y="0px" width="35.2px" height="37.9px" viewBox="0 0 35.2 37.9" enable-background="new 0 0 35.2 37.9"
	 xml:space="preserve">
<defs>
</defs>
<g>
	<path fill="#FFFFFF" d="M17.6,37.9c-0.1,0-0.2,0-0.4-0.1c-4-1.3-7.4-3.7-10.1-7.3C5,27.8,3.3,24.3,2.1,20.3C0,13.4,0,7.3,0,7.1
		c0-0.6,0.5-1.1,1.1-1.2c0.1,0,9.3-1,15.8-5.6c0.4-0.3,1-0.3,1.4,0C24.7,4.9,34,5.9,34.1,5.9c0.6,0.1,1.1,0.6,1.1,1.2
		c0,0.3,0,6.4-2.1,13.2c-1.2,4.1-2.9,7.5-5.1,10.3c-2.7,3.5-6.1,6-10.1,7.3C17.8,37.9,17.7,37.9,17.6,37.9z M2.4,8.1
		c0.1,2,0.5,6.6,2,11.5c2.6,8.4,7,13.7,13.2,15.8c6.2-2.1,10.6-7.5,13.2-15.9c1.5-4.9,1.9-9.5,2-11.5c-2.7-0.4-9.6-1.7-15.2-5.5
		C12,6.4,5.1,7.7,2.4,8.1z"/>
	<path fill="#FFFFFF" d="M16.9,24.7c-0.3,0-0.6-0.1-0.8-0.3l-4.3-3.7c-0.5-0.4-0.6-1.2-0.1-1.7c0.4-0.5,1.2-0.6,1.7-0.1l3.4,2.9
		l6.6-8.7c0.4-0.5,1.1-0.6,1.7-0.2c0.5,0.4,0.6,1.1,0.2,1.7l-7.4,9.7c-0.2,0.3-0.5,0.4-0.8,0.5C17,24.7,17,24.7,16.9,24.7z"/>
</g>
</svg>
