<!-- Generator: Adobe Illustrator 19.1.0, SVG Export Plug-In  -->
<svg version="1.1"
	 xmlns="http://www.w3.org/2000/svg" xmlns:xlink="http://www.w3.org/1999/xlink" xmlns:a="http://ns.adobe.com/AdobeSVGViewerExtensions/3.0/"
	 x="0px" y="0px" width="24px" height="16.7px" viewBox="0 0 24 16.7" enable-background="new 0 0 24 16.7" xml:space="preserve">
<defs>
</defs>
<g>
	<path d="M23.6,2.7c-0.3-1.3-1.3-2.2-2.6-2.4C18,0,15,0,12,0C9,0,6,0,3,0.3C1.8,0.5,0.7,1.4,0.4,2.7
		C0,4.5,0,6.5,0,8.4s0,3.9,0.4,5.7c0.3,1.3,1.3,2.2,2.6,2.4c3,0.3,6,0.3,9,0.3c3,0,6,0,9-0.3c1.3-0.1,2.3-1.1,2.6-2.4
		C24,12.2,24,10.2,24,8.4C24,6.5,24,4.5,23.6,2.7z M8.9,12.1c0-2.7,0-5.3,0-7.9c2.5,1.3,5.1,2.6,7.6,4C14,9.5,11.5,10.8,8.9,12.1z"
		/>
</g>
</svg>
