<!-- Generator: Adobe Illustrator 19.1.0, SVG Export Plug-In  -->
<svg version="1.1"
	 xmlns="http://www.w3.org/2000/svg" xmlns:xlink="http://www.w3.org/1999/xlink" xmlns:a="http://ns.adobe.com/AdobeSVGViewerExtensions/3.0/"
	 x="0px" y="0px" width="58.5px" height="37.9px" viewBox="0 0 58.5 37.9" enable-background="new 0 0 58.5 37.9"
	 xml:space="preserve">
<defs>
</defs>
<g>
	<path fill="#FFFFFF" d="M58.3,23.1l-3.7-6.8c-1.1-1.9-3.1-3.1-5.3-3.1h-7.8V1.4c0-0.8-0.6-1.4-1.4-1.4H1.4C0.6,0,0,0.6,0,1.4V33
		c0,0.8,0.6,1.4,1.4,1.4h4.2c0.6,2.1,2.5,3.6,4.8,3.6s4.2-1.5,4.8-3.6h24.9h3c0.6,2.1,2.5,3.6,4.8,3.6c2.2,0,4.2-1.5,4.8-3.6h4.5
		c0.8,0,1.4-0.6,1.4-1.4v-9.2C58.5,23.5,58.4,23.3,58.3,23.1L58.3,23.1z M2.8,2.8h35.8v28.7H15.2c-0.6-2.1-2.5-3.6-4.8-3.6
		s-4.2,1.5-4.8,3.6H2.8L2.8,2.8z M12.6,33c0,1.2-1,2.1-2.1,2.1s-2.1-1-2.1-2.1s1-2.1,2.1-2.1S12.6,31.8,12.6,33z M50,33
		c0,1.2-1,2.1-2.1,2.1c-1.2,0-2.1-1-2.1-2.1s1-2.1,2.1-2.1C49.1,30.8,50,31.8,50,33z M55.7,31.6h-3C52,29.5,50.1,28,47.9,28
		c-2.2,0-4.2,1.5-4.8,3.6h-1.6V16h7.8c1.2,0,2.2,0.6,2.8,1.6l3.6,6.5L55.7,31.6L55.7,31.6z"/>
	<path fill="#FFFFFF" d="M17.4,15h10.1l-1.9,1.9c-0.6,0.6-0.6,1.5,0,2c0.3,0.3,0.6,0.4,1,0.4s0.7-0.1,1-0.4l3.9-3.9
		c0.8-0.8,0.8-2,0-2.8l-3.9-3.9c-0.6-0.6-1.5-0.6-2,0c-0.6,0.6-0.6,1.5,0,2l1.9,1.9H17.4c-0.8,0-1.4,0.6-1.4,1.4
		C16,14.3,16.6,15,17.4,15L17.4,15z"/>
	<path fill="#FFFFFF" d="M13.9,26.2c0.3,0.3,0.6,0.4,1,0.4c0.4,0,0.7-0.1,1-0.4c0.6-0.6,0.6-1.5,0-2L14,22.3h10.1
		c0.8,0,1.4-0.6,1.4-1.4s-0.6-1.4-1.4-1.4H14l1.9-1.9c0.6-0.6,0.6-1.5,0-2c-0.6-0.6-1.5-0.6-2,0l-3.9,3.9c-0.4,0.4-0.6,0.9-0.6,1.4
		s0.2,1,0.6,1.4L13.9,26.2z"/>
</g>
</svg>
