<!-- Generator: Adobe Illustrator 19.1.0, SVG Export Plug-In  -->
<svg version="1.1"
	 xmlns="http://www.w3.org/2000/svg" xmlns:xlink="http://www.w3.org/1999/xlink" xmlns:a="http://ns.adobe.com/AdobeSVGViewerExtensions/3.0/"
	 x="0px" y="0px" width="11.8px" height="16px" viewBox="0 0 11.8 16" enable-background="new 0 0 11.8 16" xml:space="preserve">
<defs>
</defs>
<g>
	<path fill="#00AFAA" d="M5.9,0C2.6,0,0,2.6,0,5.9c0,0.8,0.2,1.7,0.5,2.4c1.5,3.2,4.3,6.6,5.1,7.6C5.7,16,5.8,16,5.9,16
		s0.2,0,0.2-0.1c0.8-1,3.7-4.4,5.1-7.6c0.3-0.7,0.5-1.6,0.5-2.4C11.8,2.6,9.1,0,5.9,0z M5.9,9C4.2,9,2.8,7.6,2.8,5.9
		c0-1.7,1.4-3.1,3.1-3.1S9,4.2,9,5.9C9,7.6,7.6,9,5.9,9z"/>
</g>
</svg>
