<!-- Generator: Adobe Illustrator 19.1.0, SVG Export Plug-In  -->
<svg version="1.1"
	 xmlns="http://www.w3.org/2000/svg" xmlns:xlink="http://www.w3.org/1999/xlink" xmlns:a="http://ns.adobe.com/AdobeSVGViewerExtensions/3.0/"
	 x="0px" y="0px" width="30px" height="30px" viewBox="0 0 30 30" enable-background="new 0 0 30 30" xml:space="preserve">
<defs>
</defs>
<g>
	<g>
		<path fill="#FFFFFF" d="M29.8,28L16.1,0.7c-0.7-1.2-2-0.6-2.2,0L0.1,28.2C-0.3,29.3,0.6,30,1.2,30h27.5c0,0,0,0,0,0
			C29.7,30,30.3,28.9,29.8,28z M3.3,27.5L15,4.1l11.7,23.4H3.3z"/>
		<path fill="#FFFFFF" d="M13.7,11.8v7.7c0,0.7,0.6,1.2,1.2,1.2c0.7,0,1.2-0.6,1.2-1.2v-7.7c0-0.7-0.6-1.2-1.2-1.2
			C14.3,10.5,13.7,11.1,13.7,11.8L13.7,11.8z"/>
		<ellipse fill="#FFFFFF" cx="15" cy="23.9" rx="1.3" ry="1.3"/>
	</g>
</g>
</svg>
