<svg style="display: none;"><symbol viewBox="0 0 433 3" id="shape-border-foo"><title>border-foo</title>  <circle id="border-foo-XMLID_45_" opacity="0.5" cx="1.5" cy="1.5" r="1.5"/> <circle id="border-foo-XMLID_44_" opacity="0.5" cx="11.5" cy="1.5" r="1.5"/> <circle id="border-foo-XMLID_43_" opacity="0.5" cx="21.5" cy="1.5" r="1.5"/> <circle id="border-foo-XMLID_42_" opacity="0.5" cx="31.5" cy="1.5" r="1.5"/> <circle id="border-foo-XMLID_41_" opacity="0.5" cx="41.5" cy="1.5" r="1.5"/> <circle id="border-foo-XMLID_40_" opacity="0.5" cx="51.5" cy="1.5" r="1.5"/> <circle id="border-foo-XMLID_39_" opacity="0.5" cx="61.5" cy="1.5" r="1.5"/> <circle id="border-foo-XMLID_38_" opacity="0.5" cx="71.5" cy="1.5" r="1.5"/> <circle id="border-foo-XMLID_37_" opacity="0.5" cx="81.5" cy="1.5" r="1.5"/> <circle id="border-foo-XMLID_36_" opacity="0.5" cx="91.5" cy="1.5" r="1.5"/> <circle id="border-foo-XMLID_35_" opacity="0.5" cx="101.5" cy="1.5" r="1.5"/> <circle id="border-foo-XMLID_34_" opacity="0.5" cx="111.5" cy="1.5" r="1.5"/> <circle id="border-foo-XMLID_33_" opacity="0.5" cx="121.5" cy="1.5" r="1.5"/> <circle id="border-foo-XMLID_32_" opacity="0.5" cx="131.5" cy="1.5" r="1.5"/> <circle id="border-foo-XMLID_31_" opacity="0.5" cx="141.5" cy="1.5" r="1.5"/> <circle id="border-foo-XMLID_30_" opacity="0.5" cx="151.5" cy="1.5" r="1.5"/> <circle id="border-foo-XMLID_29_" opacity="0.5" cx="161.5" cy="1.5" r="1.5"/> <circle id="border-foo-XMLID_28_" opacity="0.5" cx="171.5" cy="1.5" r="1.5"/> <circle id="border-foo-XMLID_27_" opacity="0.5" cx="181.5" cy="1.5" r="1.5"/> <circle id="border-foo-XMLID_26_" opacity="0.5" cx="191.5" cy="1.5" r="1.5"/> <circle id="border-foo-XMLID_25_" opacity="0.5" cx="201.5" cy="1.5" r="1.5"/> <circle id="border-foo-XMLID_24_" opacity="0.5" cx="211.5" cy="1.5" r="1.5"/> <circle id="border-foo-XMLID_23_" opacity="0.5" cx="221.5" cy="1.5" r="1.5"/> <circle id="border-foo-XMLID_22_" opacity="0.5" cx="231.5" cy="1.5" r="1.5"/> <circle id="border-foo-XMLID_21_" opacity="0.5" cx="241.5" cy="1.5" r="1.5"/> <circle id="border-foo-XMLID_20_" opacity="0.5" cx="251.5" cy="1.5" r="1.5"/> <circle id="border-foo-XMLID_19_" opacity="0.5" cx="261.5" cy="1.5" r="1.5"/> <circle id="border-foo-XMLID_17_" opacity="0.5" cx="271.5" cy="1.5" r="1.5"/> <circle id="border-foo-XMLID_16_" opacity="0.5" cx="281.5" cy="1.5" r="1.5"/> <circle id="border-foo-XMLID_15_" opacity="0.5" cx="291.5" cy="1.5" r="1.5"/> <circle id="border-foo-XMLID_14_" opacity="0.5" cx="301.5" cy="1.5" r="1.5"/> <circle id="border-foo-XMLID_13_" opacity="0.5" cx="311.5" cy="1.5" r="1.5"/> <circle id="border-foo-XMLID_12_" opacity="0.5" cx="321.5" cy="1.5" r="1.5"/> <circle id="border-foo-XMLID_11_" opacity="0.5" cx="331.5" cy="1.5" r="1.5"/> <circle id="border-foo-XMLID_10_" opacity="0.5" cx="341.5" cy="1.5" r="1.5"/> <circle id="border-foo-XMLID_9_" opacity="0.5" cx="351.5" cy="1.5" r="1.5"/> <circle id="border-foo-XMLID_8_" opacity="0.5" cx="361.5" cy="1.5" r="1.5"/> <circle id="border-foo-XMLID_7_" opacity="0.5" cx="371.5" cy="1.5" r="1.5"/> <circle id="border-foo-XMLID_6_" opacity="0.5" cx="381.5" cy="1.5" r="1.5"/> <circle id="border-foo-XMLID_5_" opacity="0.5" cx="391.5" cy="1.5" r="1.5"/> <circle id="border-foo-XMLID_4_" opacity="0.5" cx="401.5" cy="1.5" r="1.5"/> <circle id="border-foo-XMLID_3_" opacity="0.5" cx="411.5" cy="1.5" r="1.5"/> <circle id="border-foo-XMLID_2_" opacity="0.5" cx="421.5" cy="1.5" r="1.5"/> <circle id="border-foo-XMLID_1_" opacity="0.5" cx="431.5" cy="1.5" r="1.5"/> </symbol><symbol viewBox="0 0 21.2 26" id="shape-carro-compras"><title>carro-compras</title>  <g> <polygon fill="none" stroke-width="2" stroke-miterlimit="10" points="18.6,8.4 2.9,8.4 1.1,25 20.1,25 	"/> <path fill="none" stroke-width="2" stroke-miterlimit="10" d="M6.8,8.3V4c0-1.6,1.7-3,3.8-3h0
		c2.1,0,3.8,1.3,3.8,3v4.4H6.8z"/> </g> </symbol><symbol viewBox="0 0 16 16" id="shape-cerrar"><title>cerrar</title>  <g> <g> <path d="M8,11.6L3.6,16L0,12.4L4.4,8L0,3.6L3.6,0L8,4.4L12.4,0L16,3.6L11.6,8l4.4,4.4L12.4,16L8,11.6z"/> </g> </g> </symbol><symbol viewBox="0 0 357 357" id="shape-close"><title>close</title> <g> <g id="close-close"> <polygon points="357,35.7 321.3,0 178.5,142.8 35.7,0 0,35.7 142.8,178.5 0,321.3 35.7,357 178.5,214.2 321.3,357 357,321.3 214.2,178.5 		"/> </g> </g> </symbol><symbol viewBox="0 0 30 30" id="shape-icon-alert"><title>icon-alert</title>  <g> <g> <path fill="#FFFFFF" d="M29.8,28L16.1,0.7c-0.7-1.2-2-0.6-2.2,0L0.1,28.2C-0.3,29.3,0.6,30,1.2,30h27.5c0,0,0,0,0,0
			C29.7,30,30.3,28.9,29.8,28z M3.3,27.5L15,4.1l11.7,23.4H3.3z"/> <path fill="#FFFFFF" d="M13.7,11.8v7.7c0,0.7,0.6,1.2,1.2,1.2c0.7,0,1.2-0.6,1.2-1.2v-7.7c0-0.7-0.6-1.2-1.2-1.2
			C14.3,10.5,13.7,11.1,13.7,11.8L13.7,11.8z"/> <ellipse fill="#FFFFFF" cx="15" cy="23.9" rx="1.3" ry="1.3"/> </g> </g> </symbol><symbol viewBox="0 0 24 24" id="shape-icon-facebook"><title>icon-facebook</title>  <g> <path d="M24,4c0-2.1-1.9-4-4-4H4C1.9,0,0,1.9,0,4v16c0,2.1,1.9,4,4,4h8v-9.1H9.1v-4H12V9.4c0-2.7,2-5.1,4.5-5.1h3.2
		v4h-3.2c-0.4,0-0.8,0.4-0.8,1.1v1.6h4v4h-4V24H20c2.1,0,4-1.9,4-4V4z"/> </g> </symbol><symbol viewBox="0 0 35.2 37.9" id="shape-icon-guard"><title>icon-guard</title>  <g> <path fill="#FFFFFF" d="M17.6,37.9c-0.1,0-0.2,0-0.4-0.1c-4-1.3-7.4-3.7-10.1-7.3C5,27.8,3.3,24.3,2.1,20.3C0,13.4,0,7.3,0,7.1
		c0-0.6,0.5-1.1,1.1-1.2c0.1,0,9.3-1,15.8-5.6c0.4-0.3,1-0.3,1.4,0C24.7,4.9,34,5.9,34.1,5.9c0.6,0.1,1.1,0.6,1.1,1.2
		c0,0.3,0,6.4-2.1,13.2c-1.2,4.1-2.9,7.5-5.1,10.3c-2.7,3.5-6.1,6-10.1,7.3C17.8,37.9,17.7,37.9,17.6,37.9z M2.4,8.1
		c0.1,2,0.5,6.6,2,11.5c2.6,8.4,7,13.7,13.2,15.8c6.2-2.1,10.6-7.5,13.2-15.9c1.5-4.9,1.9-9.5,2-11.5c-2.7-0.4-9.6-1.7-15.2-5.5
		C12,6.4,5.1,7.7,2.4,8.1z"/> <path fill="#FFFFFF" d="M16.9,24.7c-0.3,0-0.6-0.1-0.8-0.3l-4.3-3.7c-0.5-0.4-0.6-1.2-0.1-1.7c0.4-0.5,1.2-0.6,1.7-0.1l3.4,2.9
		l6.6-8.7c0.4-0.5,1.1-0.6,1.7-0.2c0.5,0.4,0.6,1.1,0.2,1.7l-7.4,9.7c-0.2,0.3-0.5,0.4-0.8,0.5C17,24.7,17,24.7,16.9,24.7z"/> </g> </symbol><symbol viewBox="0 0 20 12.9" id="shape-icon-mail-2"><title>icon-mail-2</title>  <g> <g> <g> <path d="M0.7,1.2C1.2,1.5,8.7,5.5,9,5.7c0.3,0.2,0.6,0.2,1,0.2c0.4,0,0.7-0.1,1-0.2c0.3-0.2,7.8-4.2,8.3-4.5
				C19.9,0.9,20.4,0,19.4,0H0.6C-0.4,0,0.1,0.9,0.7,1.2z M19.6,3.4C19,3.7,11.4,7.7,11,7.9c-0.4,0.2-0.6,0.2-1,0.2
				c-0.4,0-0.6,0-1-0.2C8.6,7.7,1,3.7,0.4,3.4C0,3.2,0,3.5,0,3.7s0,8.2,0,8.2c0,0.5,0.6,1.1,1.1,1.1h17.8c0.5,0,1.1-0.6,1.1-1.1
				c0,0,0-7.9,0-8.2S20,3.2,19.6,3.4z"/> </g> </g> </g> </symbol><symbol viewBox="0 0 31.1 23.3" id="shape-icon-mail"><title>icon-mail</title>  <g opacity="0.1"> <path d="M19.3,11.6l10.5,11.7H1.3l10.5-11.7l3.8,3.3L19.3,11.6z M29.6,0H1.5l14.1,12.3L29.6,0z M20.8,10.3l10.3,11.6V1.3L20.8,10.3
		z M0,1.3v20.6l10.3-11.6L0,1.3z"/> </g> </symbol><symbol viewBox="0 0 17 17" id="shape-icon-more"><title>icon-more</title>  <g> <circle opacity="0.5" fill="none" stroke-miterlimit="10" cx="8.5" cy="8.5" r="8"/> <g> <path d="M9.1,5.3v2.8h2.6v0.9H9.1v2.8H8.2V8.9H5.5V8.1h2.6V5.3H9.1z"/> </g> </g> </symbol><symbol viewBox="0 0 58.5 37.9" id="shape-icon-pedido"><title>icon-pedido</title>  <g> <path fill="#FFFFFF" d="M58.3,23.1l-3.7-6.8c-1.1-1.9-3.1-3.1-5.3-3.1h-7.8V1.4c0-0.8-0.6-1.4-1.4-1.4H1.4C0.6,0,0,0.6,0,1.4V33
		c0,0.8,0.6,1.4,1.4,1.4h4.2c0.6,2.1,2.5,3.6,4.8,3.6s4.2-1.5,4.8-3.6h24.9h3c0.6,2.1,2.5,3.6,4.8,3.6c2.2,0,4.2-1.5,4.8-3.6h4.5
		c0.8,0,1.4-0.6,1.4-1.4v-9.2C58.5,23.5,58.4,23.3,58.3,23.1L58.3,23.1z M2.8,2.8h35.8v28.7H15.2c-0.6-2.1-2.5-3.6-4.8-3.6
		s-4.2,1.5-4.8,3.6H2.8L2.8,2.8z M12.6,33c0,1.2-1,2.1-2.1,2.1s-2.1-1-2.1-2.1s1-2.1,2.1-2.1S12.6,31.8,12.6,33z M50,33
		c0,1.2-1,2.1-2.1,2.1c-1.2,0-2.1-1-2.1-2.1s1-2.1,2.1-2.1C49.1,30.8,50,31.8,50,33z M55.7,31.6h-3C52,29.5,50.1,28,47.9,28
		c-2.2,0-4.2,1.5-4.8,3.6h-1.6V16h7.8c1.2,0,2.2,0.6,2.8,1.6l3.6,6.5L55.7,31.6L55.7,31.6z"/> <path fill="#FFFFFF" d="M17.4,15h10.1l-1.9,1.9c-0.6,0.6-0.6,1.5,0,2c0.3,0.3,0.6,0.4,1,0.4s0.7-0.1,1-0.4l3.9-3.9
		c0.8-0.8,0.8-2,0-2.8l-3.9-3.9c-0.6-0.6-1.5-0.6-2,0c-0.6,0.6-0.6,1.5,0,2l1.9,1.9H17.4c-0.8,0-1.4,0.6-1.4,1.4
		C16,14.3,16.6,15,17.4,15L17.4,15z"/> <path fill="#FFFFFF" d="M13.9,26.2c0.3,0.3,0.6,0.4,1,0.4c0.4,0,0.7-0.1,1-0.4c0.6-0.6,0.6-1.5,0-2L14,22.3h10.1
		c0.8,0,1.4-0.6,1.4-1.4s-0.6-1.4-1.4-1.4H14l1.9-1.9c0.6-0.6,0.6-1.5,0-2c-0.6-0.6-1.5-0.6-2,0l-3.9,3.9c-0.4,0.4-0.6,0.9-0.6,1.4
		s0.2,1,0.6,1.4L13.9,26.2z"/> </g> </symbol><symbol viewBox="0 0 16 16" id="shape-icon-phone"><title>icon-phone</title>  <g> <g> <g> <path fill="#00AFAA" d="M15.6,12.6l-2.5-2.5c-0.5-0.5-1.3-0.5-1.8,0l-1.2,1.2c-0.1,0-0.2-0.1-0.2-0.1c-0.8-0.4-1.9-1-3-2.2
				C5.7,8,5.1,6.9,4.7,6.1C4.7,6,4.6,6,4.6,5.9l0.8-0.8l0.4-0.4c0.5-0.5,0.5-1.3,0-1.8L3.4,0.4c-0.5-0.5-1.3-0.5-1.8,0L0.9,1.1l0,0
				c-0.2,0.3-0.4,0.6-0.6,1c-0.1,0.4-0.2,0.7-0.3,1C-0.3,5.9,1,8.3,4.3,11.7C9,16.3,12.7,16,12.8,16c0.4,0,0.7-0.1,1-0.3
				c0.4-0.1,0.7-0.3,1-0.6l0,0l0.7-0.7C16.1,13.9,16.1,13.1,15.6,12.6z"/> </g> </g> </g> </symbol><symbol viewBox="0 0 11.8 16" id="shape-icon-place"><title>icon-place</title>  <g> <path fill="#00AFAA" d="M5.9,0C2.6,0,0,2.6,0,5.9c0,0.8,0.2,1.7,0.5,2.4c1.5,3.2,4.3,6.6,5.1,7.6C5.7,16,5.8,16,5.9,16
		s0.2,0,0.2-0.1c0.8-1,3.7-4.4,5.1-7.6c0.3-0.7,0.5-1.6,0.5-2.4C11.8,2.6,9.1,0,5.9,0z M5.9,9C4.2,9,2.8,7.6,2.8,5.9
		c0-1.7,1.4-3.1,3.1-3.1S9,4.2,9,5.9C9,7.6,7.6,9,5.9,9z"/> </g> </symbol><symbol viewBox="0 0 24 19.5" id="shape-icon-twitter"><title>icon-twitter</title>  <g> <path d="M24,2.3c-0.9,0.4-1.8,0.7-2.8,0.8c1-0.6,1.8-1.6,2.2-2.7c-1,0.6-2,1-3.1,1.2C19.3,0.6,18,0,16.6,0
		c-2.7,0-4.9,2.2-4.9,4.9c0,0.4,0,0.8,0.1,1.1C7.7,5.8,4.1,3.9,1.7,0.9C1.2,1.6,1,2.5,1,3.4c0,1.7,0.9,3.2,2.2,4.1
		C2.4,7.4,1.6,7.2,1,6.9v0.1c0,2.4,1.7,4.4,3.9,4.8c-0.4,0.1-0.8,0.2-1.3,0.2c-0.3,0-0.6,0-0.9-0.1c0.6,1.9,2.4,3.4,4.6,3.4
		c-1.7,1.3-3.8,2.1-6.1,2.1c-0.4,0-0.8,0-1.2-0.1c2.2,1.4,4.8,2.2,7.5,2.2c9.1,0,14-7.5,14-14l0-0.6C22.5,4.2,23.3,3.3,24,2.3"/> </g> </symbol><symbol viewBox="0 0 24 16.7" id="shape-icon-youtube"><title>icon-youtube</title>  <g> <path d="M23.6,2.7c-0.3-1.3-1.3-2.2-2.6-2.4C18,0,15,0,12,0C9,0,6,0,3,0.3C1.8,0.5,0.7,1.4,0.4,2.7
		C0,4.5,0,6.5,0,8.4s0,3.9,0.4,5.7c0.3,1.3,1.3,2.2,2.6,2.4c3,0.3,6,0.3,9,0.3c3,0,6,0,9-0.3c1.3-0.1,2.3-1.1,2.6-2.4
		C24,12.2,24,10.2,24,8.4C24,6.5,24,4.5,23.6,2.7z M8.9,12.1c0-2.7,0-5.3,0-7.9c2.5,1.3,5.1,2.6,7.6,4C14,9.5,11.5,10.8,8.9,12.1z"/> </g> </symbol><symbol viewBox="0 0 6.8 3.9" id="shape-less"><title>less</title>  <g> <g> <path d="M0,0h6.8v3.9H0V0z"/> </g> </g> </symbol><symbol viewBox="0 0 26 25.1" id="shape-lupa"><title>lupa</title>  <g> <g> <line fill="#FFFFFF" stroke-width="2" stroke-linecap="round" stroke-miterlimit="10" x1="19.7" y1="18.8" x2="25" y2="24.1"/> <circle fill="none" stroke-width="2" stroke-miterlimit="10" cx="11.5" cy="11.5" r="10.5"/> </g> </g> </symbol><symbol viewBox="0 0 8.6 15.5" id="shape-pag-back"><title>pag-back</title>  <polygon points="4.5,7.7 8.6,13.5 5.6,15.5 0,9.1 0,6.4 5.6,0 8.6,2 "/> </symbol><symbol viewBox="0 0 8.6 15.5" id="shape-pag-next"><title>pag-next</title>  <polygon points="4.1,7.8 0,2 3,0 8.6,6.4 8.6,9.1 3,15.5 0,13.5 "/> </symbol><symbol viewBox="0 0 11 11" id="shape-plus"><title>plus</title>  <g> <g> <path d="M3.9,7.1H0V3.9h3.9V0h3.2v3.9H11v3.2H7.1V11H3.9V7.1z"/> </g> </g> </symbol></svg>