<!-- Generator: Adobe Illustrator 19.1.0, SVG Export Plug-In  -->
<svg version="1.1"
	 xmlns="http://www.w3.org/2000/svg" xmlns:xlink="http://www.w3.org/1999/xlink" xmlns:a="http://ns.adobe.com/AdobeSVGViewerExtensions/3.0/"
	 x="0px" y="0px" width="12px" height="12px" viewBox="0 0 12 12" enable-background="new 0 0 12 12" xml:space="preserve">
<defs>
</defs>
<rect fill="transparent" width="12" height="12"/>
<g id="XMLID_1_">
	<g id="XMLID_2_">
		<path id="XMLID_3_" fill="#b4b9bf" d="M8,11.7c0.9,0,1.7-0.1,1.9-0.9c0,0,0,0.3,0,0.2c0.2-0.6,0-1.3,0-1.3L10,9.8
			c0.4,0.1,0.5,0.1,0.9,0C11.7,9.6,12,8.9,12,8V7.4c0,0-0.6,0.9-1.4,1.2c0,0,0.1,0,0.1,0C9.9,8.9,9.1,8.6,8.6,8
			c-0.3-0.4-0.6-0.8-1-1.1C6.8,6.2,6,6,6,6c0.8,0.4,1.6,1.2,2.4,2.3l0,0.1c0,0-0.9-0.6-1.5-1.2C6.3,6.6,6,6,6,6s0.2,0.8,0.9,1.5
			C7.2,7.9,7.7,8.3,8,8.6c0.5,0.4,0.8,1,0.8,1.6c0,0.3-0.1,0-0.2,0.2c-0.3,0.8-1.1,1.3-1.1,1.3H8z"/>
	</g>
</g>
</svg>
