<!-- Generator: Adobe Illustrator 19.1.0, SVG Export Plug-In  -->
<svg version="1.1"
	 xmlns="http://www.w3.org/2000/svg" xmlns:xlink="http://www.w3.org/1999/xlink" xmlns:a="http://ns.adobe.com/AdobeSVGViewerExtensions/3.0/"
	 x="0px" y="0px" width="12px" height="12px" viewBox="0 0 12 12" enable-background="new 0 0 12 12" xml:space="preserve">
<defs>
</defs>
<rect fill="transparent" width="12" height="12"/>
<g id="XMLID_1_">
	<g id="XMLID_2_">
		<path id="XMLID_3_" fill="#b4b9bf" d="M0,7.9c0,0.9,0.1,1.7,1,1.9c0,0-0.2,0-0.2,0c0.6,0.2,1.3,0,1.3,0L2,9.8
			c-0.1,0.4-0.1,0.4,0,0.8c0.2,0.8,1,1,1.8,1h0.6c0,0-0.9-0.5-1.2-1.3c0,0,0,0.2,0,0.1C3,9.7,3.2,8.9,3.9,8.4c0.4-0.3,0.8-0.6,1.1-1
			c0.7-0.8,0.9-1.5,0.9-1.5C5.5,6.6,4.7,7.4,3.6,8.2l-0.1,0c0,0,0.6-0.9,1.2-1.5c0.6-0.6,1.2-0.9,1.2-0.9S5.1,6,4.3,6.7
			C3.9,7.1,3.5,7.5,3.3,7.9c-0.4,0.5-1,0.8-1.6,0.8c-0.3,0-0.1-0.1-0.3-0.2C0.6,8.2,0,7.3,0,7.3V7.9z"/>
	</g>
</g>
</svg>
