<!-- Generator: Adobe Illustrator 19.1.0, SVG Export Plug-In  -->
<svg version="1.1"
	 xmlns="http://www.w3.org/2000/svg" xmlns:xlink="http://www.w3.org/1999/xlink" xmlns:a="http://ns.adobe.com/AdobeSVGViewerExtensions/3.0/"
	 x="0px" y="0px" width="12px" height="12.3px" viewBox="0 0 12 12.3" enable-background="new 0 0 12 12.3" xml:space="preserve">
<defs>
</defs>
<rect y="0.3" fill="transparent" width="12" height="12"/>
<g id="XMLID_1_">
	<g id="XMLID_2_">
		<path id="XMLID_3_" fill="#b4b9bf" d="M12,4.6c0-0.9-0.3-1.7-1.2-1.9c0,0,0.1,0,0.1,0c-0.6-0.2-1.3,0-1.3,0l0-0.1
			c0.1-0.4,0.1-0.8,0-1.2C9.4,0.6,8.7,0,7.8,0H7.2c0,0,0.9,0.9,1.2,1.7c0,0,0,0,0,0c0.3,0.8,0,1.7-0.6,2.2C7.4,4.2,7,4.6,6.6,5
			C6,5.8,5.8,6.6,5.8,6.6C6.2,5.8,7,5,8.1,4.2l0.1,0c0,0-0.6,0.9-1.2,1.5C6.4,6.3,5.8,6.6,5.8,6.6s0.8-0.2,1.5-0.9
			c0.4-0.3,0.8-0.8,1.1-1.2C8.8,4,9.3,3.7,10,3.8c0.3,0,0.2,0.1,0.5,0.2C11.3,4.2,12,5.1,12,5.1V4.6z"/>
	</g>
</g>
</svg>
