<!-- Generator: Adobe Illustrator 19.1.0, SVG Export Plug-In  -->
<svg version="1.1"
	 xmlns="http://www.w3.org/2000/svg" xmlns:xlink="http://www.w3.org/1999/xlink" xmlns:a="http://ns.adobe.com/AdobeSVGViewerExtensions/3.0/"
	 x="0px" y="0px" width="12px" height="12.3px" viewBox="0 0 12 12.3" enable-background="new 0 0 12 12.3" xml:space="preserve">
<defs>
</defs>
<rect y="0.3" fill="transparent" width="12" height="12"/>
<g id="XMLID_1_">
	<g id="XMLID_2_">
		<path id="XMLID_3_" fill="#b4b9bf" d="M3.9,0C2.9,0,2.1,0.3,1.9,1.2c0,0,0-0.1,0-0.1C1.8,1.8,2,2.4,2,2.4l-0.1,0
			C1.4,2.3,1.4,2.3,1,2.4c-0.8,0.2-1,1-1,1.8v0.6c0,0,0.5-0.9,1.3-1.2c0,0-0.2,0-0.1,0c0.8-0.3,1.6,0,2.1,0.6c0.3,0.4,0.6,0.8,1,1.1
			c0.8,0.7,1.5,0.9,1.5,0.9C5.1,5.9,4.3,5.1,3.5,4l0-0.1c0,0,0.9,0.6,1.5,1.2c0.6,0.6,0.9,1.2,0.9,1.2S5.7,5.5,5,4.7
			C4.6,4.4,4.2,4,3.8,3.7C3.3,3.3,3,2.7,3.1,2.1c0-0.3,0.1-0.3,0.2-0.5C3.5,0.8,4.4,0,4.4,0H3.9z"/>
	</g>
</g>
</svg>
