<!-- Generator: Adobe Illustrator 19.1.0, SVG Export Plug-In  -->
<svg version="1.1"
	 xmlns="http://www.w3.org/2000/svg" xmlns:xlink="http://www.w3.org/1999/xlink" xmlns:a="http://ns.adobe.com/AdobeSVGViewerExtensions/3.0/"
	 x="0px" y="0px" width="74.5px" height="11.6px" viewBox="0 0 74.5 11.6" enable-background="new 0 0 74.5 11.6"
	 xml:space="preserve">
<defs>
</defs>
<g>
	<g>
		<path fill="#7a828d" d="M6.8,8.6c0.2,0,0.4,0,0.5-0.1c0.1,0,0.2-0.1,0.3-0.2C7.7,8.3,7.7,8.1,7.8,8c0-0.2,0-0.4,0-0.6h2.5v4H0V8.6
			c0.4,0,0.7-0.1,0.9-0.2c0.2-0.1,0.3-0.3,0.3-0.6V4.1c0-0.3-0.1-0.5-0.3-0.6C0.7,3.4,0.4,3.3,0,3.3V0.6h10.3v4H7.8
			c0-0.3,0-0.5,0-0.6c0-0.2-0.1-0.3-0.2-0.4C7.5,3.5,7.4,3.4,7.3,3.4C7.1,3.3,7,3.3,6.8,3.3H5.5v1.9h2.3v1.3H5.5v2.1H6.8z"/>
		<path fill="#7a828d" d="M12.1,3.3c-0.1,0-0.2-0.1-0.3-0.2c-0.1-0.1-0.2-0.2-0.3-0.3c-0.1-0.1-0.1-0.2-0.2-0.4
			c-0.1-0.1-0.1-0.3-0.1-0.5c0-0.3,0.1-0.6,0.3-0.9c0.2-0.2,0.5-0.5,0.8-0.6s0.8-0.3,1.2-0.3C14.1,0,14.7,0,15.3,0
			C16,0,16.6,0,17,0.1c0.5,0.1,0.9,0.2,1.1,0.4s0.5,0.3,0.6,0.6S19,1.5,19,1.8c0,0.2,0,0.3-0.1,0.5c-0.1,0.1-0.1,0.3-0.3,0.4
			c-0.1,0.1-0.3,0.2-0.5,0.3C18,3,17.8,3,17.5,3c-0.5,0-0.9-0.1-1.1-0.4C16.1,2.4,16,2.1,16,1.8c0-0.2,0.1-0.4,0.2-0.5
			c0.1-0.1,0.2-0.2,0.4-0.3L16.4,1c-0.3,0-0.5,0-0.6,0.1s-0.3,0.1-0.4,0.2c-0.1,0.1-0.1,0.2-0.2,0.3c0,0.1,0,0.2,0,0.3
			c0,0.2,0,0.3,0.1,0.5c0.1,0.2,0.2,0.3,0.3,0.4C15.8,3,16,3.1,16.2,3.2c0.2,0.1,0.6,0.1,0.9,0.1h0.8V6h-1.6v1.8
			c0,0.3,0.1,0.5,0.2,0.6c0.2,0.1,0.4,0.1,0.6,0.1h0.5v2.7h-6.4V8.6h0.3c0.3,0,0.4-0.1,0.6-0.2s0.2-0.3,0.2-0.5V6h-1.3V3.3H12.1z"/>
		<path fill="#7a828d" d="M23,7.7c0,0.7,0.2,1.2,0.4,1.5c0.3,0.3,0.6,0.4,1.1,0.4c0.2,0,0.3,0,0.5-0.1s0.3-0.1,0.4-0.2
			s0.2-0.2,0.3-0.4c0.1-0.2,0.2-0.4,0.2-0.6h2.6c-0.1,0.6-0.3,1.1-0.5,1.6c-0.3,0.4-0.6,0.8-1,1c-0.4,0.3-0.9,0.4-1.4,0.6
			s-1.1,0.2-1.8,0.2c-0.7,0-1.3-0.1-1.9-0.3c-0.6-0.2-1.1-0.4-1.6-0.8c-0.5-0.4-0.8-0.8-1.1-1.3C19,8.7,18.8,8,18.8,7.3
			c0-0.7,0.1-1.3,0.4-1.9c0.2-0.5,0.6-1,1-1.3c0.4-0.4,1-0.6,1.6-0.8C22.4,3.1,23,3,23.7,3c0.9,0,1.6,0.1,2.3,0.3s1.2,0.6,1.6,1
			c0.4,0.4,0.7,0.9,0.9,1.5c0.2,0.6,0.3,1.2,0.3,2H23z M24.1,4.9c-0.3,0-0.6,0.1-0.8,0.4C23.1,5.5,23,5.9,23,6.5h2.1
			c0-0.5-0.1-0.9-0.3-1.1C24.6,5.1,24.4,4.9,24.1,4.9z"/>
		<path fill="#7a828d" d="M34.8,4.9c-0.4,0-0.7,0.2-1,0.5c-0.2,0.4-0.3,0.9-0.3,1.8s0.1,1.4,0.3,1.8c0.2,0.3,0.6,0.5,1.1,0.5
			c0.1,0,0.3,0,0.4-0.1s0.3-0.1,0.4-0.2c0.1-0.1,0.2-0.2,0.3-0.3c0.1-0.1,0.1-0.3,0.1-0.5h2.3c-0.2,1.1-0.6,1.9-1.3,2.4
			s-1.7,0.8-3.1,0.8c-0.7,0-1.3-0.1-1.9-0.3s-1.1-0.4-1.5-0.8c-0.4-0.4-0.8-0.8-1-1.3c-0.2-0.5-0.4-1.2-0.4-1.9
			c0-0.7,0.1-1.3,0.4-1.9c0.2-0.5,0.6-1,1-1.3c0.4-0.4,1-0.6,1.6-0.8c0.6-0.2,1.3-0.3,2-0.3c0.8,0,1.4,0.1,1.9,0.3
			c0.5,0.2,0.9,0.4,1.3,0.7c0.3,0.3,0.6,0.6,0.7,0.9c0.1,0.3,0.2,0.6,0.2,0.9c0,0.2,0,0.5-0.1,0.7s-0.2,0.4-0.3,0.6
			c-0.1,0.2-0.3,0.3-0.6,0.4s-0.5,0.2-0.8,0.2c-0.3,0-0.6,0-0.8-0.1c-0.2-0.1-0.4-0.2-0.5-0.3c-0.1-0.1-0.2-0.3-0.2-0.4
			S35,6.5,35,6.3C35,6,35,5.8,35.2,5.6s0.3-0.3,0.5-0.4c-0.1-0.1-0.2-0.2-0.3-0.2C35.2,5,35,4.9,34.8,4.9z"/>
		<path fill="#7a828d" d="M44.1,0.6v2.7h2.2V6h-2.2v2.2c0,0.3,0,0.6,0.1,0.8c0.1,0.2,0.3,0.3,0.6,0.3c0.2,0,0.3,0,0.4-0.1
			c0.1-0.1,0.2-0.1,0.2-0.2s0.1-0.2,0.1-0.3s0-0.3,0-0.4V7.1h0.8v1.2c0,0.5,0,0.9-0.1,1.3c-0.1,0.4-0.3,0.8-0.5,1.1
			c-0.2,0.3-0.6,0.5-1,0.7c-0.4,0.2-0.9,0.3-1.6,0.3c-0.7,0-1.2-0.1-1.7-0.3c-0.4-0.2-0.7-0.4-0.9-0.7c-0.2-0.3-0.4-0.6-0.4-1.1
			c-0.1-0.4-0.1-0.8-0.1-1.3V6h-1.1V3.6c0.4,0,0.7-0.1,1-0.2c0.3-0.2,0.6-0.4,0.8-0.7c0.2-0.3,0.4-0.6,0.5-1
			c0.1-0.4,0.2-0.7,0.2-1.1H44.1z"/>
		<path fill="#7a828d" d="M52.2,3.3v4.5c0,0.3,0.1,0.5,0.2,0.6c0.2,0.1,0.4,0.1,0.6,0.1h0.2v2.7h-6.1V8.6h0.3c0.3,0,0.4-0.1,0.6-0.2
			s0.2-0.3,0.2-0.5v-1c0-0.3-0.1-0.5-0.3-0.6C47.7,6.1,47.5,6,47.3,6h-0.2V3.3H52.2z M48,1.5c0-0.4,0.2-0.8,0.5-1.1
			C48.8,0.1,49.3,0,49.9,0c0.6,0,1.1,0.1,1.4,0.4c0.3,0.3,0.5,0.7,0.5,1.1c0,0.4-0.2,0.8-0.5,1.1C50.9,2.9,50.5,3,49.9,3
			c-0.6,0-1-0.1-1.4-0.4C48.2,2.3,48,1.9,48,1.5z"/>
		<path fill="#7a828d" d="M54.5,6.6c-0.1-0.2-0.2-0.4-0.4-0.5C54,6,53.7,6,53.4,6V3.3h5.8V6c-0.3,0-0.5,0-0.6,0.1
			c-0.1,0.1-0.1,0.2,0,0.4l0.8,2.2h0.1l0.8-2.2c0.1-0.2,0.1-0.3,0-0.4C60.2,6,60,6,59.7,6V3.3h4V6c-0.4,0-0.6,0-0.7,0.1
			c-0.1,0.1-0.3,0.3-0.4,0.5l-1.9,4.7h-4.2L54.5,6.6z"/>
		<path fill="#7a828d" d="M64,7.3c0-0.7,0.1-1.3,0.4-1.9s0.6-1,1.1-1.3c0.5-0.4,1-0.6,1.7-0.8C67.7,3.1,68.5,3,69.3,3
			c0.8,0,1.5,0.1,2.2,0.3c0.6,0.2,1.2,0.5,1.6,0.8c0.5,0.4,0.8,0.8,1.1,1.3c0.2,0.5,0.4,1.2,0.4,1.9c0,0.7-0.1,1.3-0.4,1.9
			c-0.2,0.5-0.6,1-1.1,1.4s-1,0.6-1.6,0.8c-0.6,0.2-1.4,0.3-2.2,0.3c-0.8,0-1.5-0.1-2.2-0.3c-0.6-0.2-1.2-0.5-1.7-0.8
			c-0.5-0.4-0.8-0.8-1.1-1.4S64,8,64,7.3z M68.2,7.3c0,0.4,0,0.8,0.1,1c0,0.3,0.1,0.5,0.2,0.7c0.1,0.2,0.2,0.3,0.3,0.4
			c0.1,0.1,0.3,0.1,0.5,0.1s0.4,0,0.5-0.1C69.9,9.3,70,9.2,70.1,9c0.1-0.2,0.1-0.4,0.2-0.7s0.1-0.6,0.1-1c0-0.8-0.1-1.4-0.2-1.7
			s-0.4-0.5-0.9-0.5c-0.2,0-0.4,0-0.5,0.1c-0.1,0.1-0.3,0.2-0.3,0.4c-0.1,0.2-0.1,0.4-0.2,0.7C68.2,6.5,68.2,6.9,68.2,7.3z"/>
	</g>
	<g>
		<path fill="#7a828d" d="M6.8,8.6c0.2,0,0.4,0,0.5-0.1c0.1,0,0.2-0.1,0.3-0.2C7.7,8.3,7.7,8.1,7.8,8c0-0.2,0-0.4,0-0.6h2.5v4H0V8.6
			c0.4,0,0.7-0.1,0.9-0.2c0.2-0.1,0.3-0.3,0.3-0.6V4.1c0-0.3-0.1-0.5-0.3-0.6C0.7,3.4,0.4,3.3,0,3.3V0.6h10.3v4H7.8
			c0-0.3,0-0.5,0-0.6c0-0.2-0.1-0.3-0.2-0.4C7.5,3.5,7.4,3.4,7.3,3.4C7.1,3.3,7,3.3,6.8,3.3H5.5v1.9h2.3v1.3H5.5v2.1H6.8z"/>
		<path fill="#7a828d" d="M12.1,3.3c-0.1,0-0.2-0.1-0.3-0.2c-0.1-0.1-0.2-0.2-0.3-0.3c-0.1-0.1-0.1-0.2-0.2-0.4
			c-0.1-0.1-0.1-0.3-0.1-0.5c0-0.3,0.1-0.6,0.3-0.9c0.2-0.2,0.5-0.5,0.8-0.6s0.8-0.3,1.2-0.3C14.1,0,14.7,0,15.3,0
			C16,0,16.6,0,17,0.1c0.5,0.1,0.9,0.2,1.1,0.4s0.5,0.3,0.6,0.6S19,1.5,19,1.8c0,0.2,0,0.3-0.1,0.5c-0.1,0.1-0.1,0.3-0.3,0.4
			c-0.1,0.1-0.3,0.2-0.5,0.3C18,3,17.8,3,17.5,3c-0.5,0-0.9-0.1-1.1-0.4C16.1,2.4,16,2.1,16,1.8c0-0.2,0.1-0.4,0.2-0.5
			c0.1-0.1,0.2-0.2,0.4-0.3L16.4,1c-0.3,0-0.5,0-0.6,0.1s-0.3,0.1-0.4,0.2c-0.1,0.1-0.1,0.2-0.2,0.3c0,0.1,0,0.2,0,0.3
			c0,0.2,0,0.3,0.1,0.5c0.1,0.2,0.2,0.3,0.3,0.4C15.8,3,16,3.1,16.2,3.2c0.2,0.1,0.6,0.1,0.9,0.1h0.8V6h-1.6v1.8
			c0,0.3,0.1,0.5,0.2,0.6c0.2,0.1,0.4,0.1,0.6,0.1h0.5v2.7h-6.4V8.6h0.3c0.3,0,0.4-0.1,0.6-0.2s0.2-0.3,0.2-0.5V6h-1.3V3.3H12.1z"/>
		<path fill="#7a828d" d="M23,7.7c0,0.7,0.2,1.2,0.4,1.5c0.3,0.3,0.6,0.4,1.1,0.4c0.2,0,0.3,0,0.5-0.1s0.3-0.1,0.4-0.2
			s0.2-0.2,0.3-0.4c0.1-0.2,0.2-0.4,0.2-0.6h2.6c-0.1,0.6-0.3,1.1-0.5,1.6c-0.3,0.4-0.6,0.8-1,1c-0.4,0.3-0.9,0.4-1.4,0.6
			s-1.1,0.2-1.8,0.2c-0.7,0-1.3-0.1-1.9-0.3c-0.6-0.2-1.1-0.4-1.6-0.8c-0.5-0.4-0.8-0.8-1.1-1.3C19,8.7,18.8,8,18.8,7.3
			c0-0.7,0.1-1.3,0.4-1.9c0.2-0.5,0.6-1,1-1.3c0.4-0.4,1-0.6,1.6-0.8C22.4,3.1,23,3,23.7,3c0.9,0,1.6,0.1,2.3,0.3s1.2,0.6,1.6,1
			c0.4,0.4,0.7,0.9,0.9,1.5c0.2,0.6,0.3,1.2,0.3,2H23z M24.1,4.9c-0.3,0-0.6,0.1-0.8,0.4C23.1,5.5,23,5.9,23,6.5h2.1
			c0-0.5-0.1-0.9-0.3-1.1C24.6,5.1,24.4,4.9,24.1,4.9z"/>
		<path fill="#7a828d" d="M34.8,4.9c-0.4,0-0.7,0.2-1,0.5c-0.2,0.4-0.3,0.9-0.3,1.8s0.1,1.4,0.3,1.8c0.2,0.3,0.6,0.5,1.1,0.5
			c0.1,0,0.3,0,0.4-0.1s0.3-0.1,0.4-0.2c0.1-0.1,0.2-0.2,0.3-0.3c0.1-0.1,0.1-0.3,0.1-0.5h2.3c-0.2,1.1-0.6,1.9-1.3,2.4
			s-1.7,0.8-3.1,0.8c-0.7,0-1.3-0.1-1.9-0.3s-1.1-0.4-1.5-0.8c-0.4-0.4-0.8-0.8-1-1.3c-0.2-0.5-0.4-1.2-0.4-1.9
			c0-0.7,0.1-1.3,0.4-1.9c0.2-0.5,0.6-1,1-1.3c0.4-0.4,1-0.6,1.6-0.8c0.6-0.2,1.3-0.3,2-0.3c0.8,0,1.4,0.1,1.9,0.3
			c0.5,0.2,0.9,0.4,1.3,0.7c0.3,0.3,0.6,0.6,0.7,0.9c0.1,0.3,0.2,0.6,0.2,0.9c0,0.2,0,0.5-0.1,0.7s-0.2,0.4-0.3,0.6
			c-0.1,0.2-0.3,0.3-0.6,0.4s-0.5,0.2-0.8,0.2c-0.3,0-0.6,0-0.8-0.1c-0.2-0.1-0.4-0.2-0.5-0.3c-0.1-0.1-0.2-0.3-0.2-0.4
			S35,6.5,35,6.3C35,6,35,5.8,35.2,5.6s0.3-0.3,0.5-0.4c-0.1-0.1-0.2-0.2-0.3-0.2C35.2,5,35,4.9,34.8,4.9z"/>
		<path fill="#7a828d" d="M44.1,0.6v2.7h2.2V6h-2.2v2.2c0,0.3,0,0.6,0.1,0.8c0.1,0.2,0.3,0.3,0.6,0.3c0.2,0,0.3,0,0.4-0.1
			c0.1-0.1,0.2-0.1,0.2-0.2s0.1-0.2,0.1-0.3s0-0.3,0-0.4V7.1h0.8v1.2c0,0.5,0,0.9-0.1,1.3c-0.1,0.4-0.3,0.8-0.5,1.1
			c-0.2,0.3-0.6,0.5-1,0.7c-0.4,0.2-0.9,0.3-1.6,0.3c-0.7,0-1.2-0.1-1.7-0.3c-0.4-0.2-0.7-0.4-0.9-0.7c-0.2-0.3-0.4-0.6-0.4-1.1
			c-0.1-0.4-0.1-0.8-0.1-1.3V6h-1.1V3.6c0.4,0,0.7-0.1,1-0.2c0.3-0.2,0.6-0.4,0.8-0.7c0.2-0.3,0.4-0.6,0.5-1
			c0.1-0.4,0.2-0.7,0.2-1.1H44.1z"/>
		<path fill="#7a828d" d="M52.2,3.3v4.5c0,0.3,0.1,0.5,0.2,0.6c0.2,0.1,0.4,0.1,0.6,0.1h0.2v2.7h-6.1V8.6h0.3c0.3,0,0.4-0.1,0.6-0.2
			s0.2-0.3,0.2-0.5v-1c0-0.3-0.1-0.5-0.3-0.6C47.7,6.1,47.5,6,47.3,6h-0.2V3.3H52.2z M48,1.5c0-0.4,0.2-0.8,0.5-1.1
			C48.8,0.1,49.3,0,49.9,0c0.6,0,1.1,0.1,1.4,0.4c0.3,0.3,0.5,0.7,0.5,1.1c0,0.4-0.2,0.8-0.5,1.1C50.9,2.9,50.5,3,49.9,3
			c-0.6,0-1-0.1-1.4-0.4C48.2,2.3,48,1.9,48,1.5z"/>
		<path fill="#7a828d" d="M54.5,6.6c-0.1-0.2-0.2-0.4-0.4-0.5C54,6,53.7,6,53.4,6V3.3h5.8V6c-0.3,0-0.5,0-0.6,0.1
			c-0.1,0.1-0.1,0.2,0,0.4l0.8,2.2h0.1l0.8-2.2c0.1-0.2,0.1-0.3,0-0.4C60.2,6,60,6,59.7,6V3.3h4V6c-0.4,0-0.6,0-0.7,0.1
			c-0.1,0.1-0.3,0.3-0.4,0.5l-1.9,4.7h-4.2L54.5,6.6z"/>
		<path fill="#7a828d" d="M64,7.3c0-0.7,0.1-1.3,0.4-1.9s0.6-1,1.1-1.3c0.5-0.4,1-0.6,1.7-0.8C67.7,3.1,68.5,3,69.3,3
			c0.8,0,1.5,0.1,2.2,0.3c0.6,0.2,1.2,0.5,1.6,0.8c0.5,0.4,0.8,0.8,1.1,1.3c0.2,0.5,0.4,1.2,0.4,1.9c0,0.7-0.1,1.3-0.4,1.9
			c-0.2,0.5-0.6,1-1.1,1.4s-1,0.6-1.6,0.8c-0.6,0.2-1.4,0.3-2.2,0.3c-0.8,0-1.5-0.1-2.2-0.3c-0.6-0.2-1.2-0.5-1.7-0.8
			c-0.5-0.4-0.8-0.8-1.1-1.4S64,8,64,7.3z M68.2,7.3c0,0.4,0,0.8,0.1,1c0,0.3,0.1,0.5,0.2,0.7c0.1,0.2,0.2,0.3,0.3,0.4
			c0.1,0.1,0.3,0.1,0.5,0.1s0.4,0,0.5-0.1C69.9,9.3,70,9.2,70.1,9c0.1-0.2,0.1-0.4,0.2-0.7s0.1-0.6,0.1-1c0-0.8-0.1-1.4-0.2-1.7
			s-0.4-0.5-0.9-0.5c-0.2,0-0.4,0-0.5,0.1c-0.1,0.1-0.3,0.2-0.3,0.4c-0.1,0.2-0.1,0.4-0.2,0.7C68.2,6.5,68.2,6.9,68.2,7.3z"/>
	</g>
</g>
</svg>
