<!-- Generator: Adobe Illustrator 19.1.0, SVG Export Plug-In  -->
<svg version="1.1"
	 xmlns="http://www.w3.org/2000/svg" xmlns:xlink="http://www.w3.org/1999/xlink" xmlns:a="http://ns.adobe.com/AdobeSVGViewerExtensions/3.0/"
	 x="0px" y="0px" width="112.5px" height="69px" viewBox="0 0 112.5 69" enable-background="new 0 0 112.5 69" xml:space="preserve"
	>
<defs>
</defs>
<g id="Footer_copia">
	<g>
		<polygon fill="#FFFFFF" points="4.4,50 3.7,50 3.7,45.5 1.7,45.5 1.7,45.1 6.4,45.1 6.4,45.5 4.4,45.5 		"/>
		<path fill="#FFFFFF" d="M15.5,50h-0.7l2.7-4.9h0.6l2.7,4.9H20l-0.7-1.3h-3.1L15.5,50z M16.4,48.2h2.7l-1.3-2.6L16.4,48.2z"/>
		<polygon fill="#FFFFFF" points="31.1,47.2 31.2,47.2 34,45.1 34.9,45.1 31.8,47.3 35.1,50 34.2,50 31.2,47.5 31.1,47.5 31.1,50 
			30.4,50 30.4,45.1 31.1,45.1 		"/>
		<polygon fill="#FFFFFF" points="45.4,49.5 48.7,49.5 48.7,50 44.8,50 44.8,45.1 48.6,45.1 48.6,45.5 45.4,45.5 45.4,47.2 
			48.4,47.2 48.4,47.7 45.4,47.7 		"/>
		<path fill="#FFFFFF" d="M2.3,58.3H1.6l2.7-4.9h0.6l2.7,4.9H6.8L6.1,57H3L2.3,58.3z M3.2,56.6h2.7L4.5,54L3.2,56.6z"/>
		<polygon fill="#FFFFFF" points="17.4,57.6 17.4,57.6 19,53.4 19.7,53.4 21.3,57.6 21.3,57.6 22.7,53.4 23.4,53.4 21.6,58.3 
			20.9,58.3 19.3,54.1 19.3,54.1 17.8,58.3 17,58.3 15.2,53.4 15.9,53.4 		"/>
		<path fill="#FFFFFF" d="M31.8,58.3H31l2.7-4.9h0.6l2.7,4.9h-0.7L35.6,57h-3.1L31.8,58.3z M32.7,56.6h2.7L34,54L32.7,56.6z"/>
		<polygon fill="#FFFFFF" points="46.9,58.3 46.3,58.3 46.3,56.2 44,53.4 44.7,53.4 46.6,55.7 48.4,53.4 49.2,53.4 46.9,56.2 		"/>
		<polygon fill="#FFFFFF" points="3,66.7 2.4,66.7 2.4,61.8 6.1,61.8 6.1,62.2 3,62.2 3,63.9 5.9,63.9 5.9,64.3 3,64.3 		"/>
		<path fill="#FFFFFF" d="M17.3,66.8c-1.8,0-3.2-1.1-3.2-2.6c0-1.5,1.4-2.6,3.2-2.6c1.8,0,3.2,1.1,3.2,2.6
			C20.5,65.7,19.1,66.8,17.3,66.8 M17.3,62.1c-1.6,0-2.5,1-2.5,2.1c0,1.1,0.9,2.1,2.5,2.1c1.6,0,2.5-1,2.5-2.1
			C19.8,63.1,18.8,62.1,17.3,62.1"/>
		<path fill="#FFFFFF" d="M31.8,66.8c-1.8,0-3.2-1.1-3.2-2.6c0-1.5,1.4-2.6,3.2-2.6c1.8,0,3.2,1.1,3.2,2.6
			C35,65.7,33.6,66.8,31.8,66.8 M31.8,62.1c-1.6,0-2.5,1-2.5,2.1c0,1.1,0.9,2.1,2.5,2.1c1.6,0,2.5-1,2.5-2.1
			C34.3,63.1,33.3,62.1,31.8,62.1"/>
		<path fill="#FFFFFF" d="M43.4,61.8h2c1.5,0,3.2,0.8,3.2,2.5c0,1.6-1.7,2.5-3.2,2.5h-2V61.8z M44,66.2h1.2c1.9,0,2.8-1,2.8-2
			c0-1-0.9-2-2.8-2H44V66.2z"/>
		<path fill="#FFFFFF" d="M25.4,0c-0.1,3-0.1,5.8-0.1,8.4c0,2.6,0,5,0,7.3c0,10.7-4.2,16-12.6,16c-2.2,0-4.1-0.3-5.6-0.9
			c-1.6-0.6-2.9-1.6-3.9-2.9c-1-1.3-1.8-2.9-2.2-4.9c-0.5-2-0.7-4.3-0.7-7c0-2.4,0-4.9,0-7.5C0.1,5.8,0.1,3,0,0h4.5
			C4.3,6.1,4.2,10.8,4.2,14.2c0,2.8,0.1,5,0.4,6.8c0.3,1.7,0.8,3.2,1.4,4.4c0.7,1.2,1.6,2,2.6,2.5c1.1,0.5,2.4,0.7,4,0.7
			c1.7,0,3.1-0.2,4.2-0.7c1.1-0.5,1.9-1.3,2.6-2.4c0.7-1.1,1.1-2.6,1.4-4.3c0.3-1.8,0.4-4.1,0.4-6.9c0-1.7,0-3.7-0.1-6.1
			C21.2,5.8,21.1,3.1,21,0H25.4z"/>
		<path fill="#FFFFFF" d="M39.4,8.9l-1.1,3.8c-1.2-0.5-2.4-0.7-3.5-0.7c-3,0-4.9,1.4-5.8,4.3c0,7.3,0,12.4,0.1,15.3h-4.2
			c0.3-5,0.4-9,0.4-11.7c0-3.8-0.4-7.4-1.1-10.8l4.2-0.6c0.3,1.7,0.5,2.9,0.5,3.5H29c1.7-2.5,3.7-3.8,6-3.8
			C36.2,8.1,37.7,8.4,39.4,8.9"/>
		<path fill="#FFFFFF" d="M60.7,27.1c0,4.3-1.2,7.9-3.6,11.1c-2.4,3.1-5.8,4.7-10,4.7c-3.6,0-6-0.6-7.3-1.9h-0.2L38.8,42h-4.3
			c0.3-6.7,0.4-13.9,0.4-21.7c0-7-0.3-13.5-1-19.3l5.8-0.3c-0.2,3.3-0.3,8.6-0.3,15.9h0.2c1.9-2.2,4.9-3.3,9.1-3.3
			c3.6,0,6.5,1.3,8.7,4C59.6,20,60.7,23.3,60.7,27.1 M55.5,27.8c0-2.9-0.8-5.4-2.3-7.4c-1.5-2-3.7-3-6.4-3c-3.5,0-6,1.1-7.5,3.2
			c0,6.9,0.2,12.5,0.5,16.8c1.6,1.3,3.6,2,6.1,2c3.2,0,5.6-1.1,7.2-3.3C54.7,33.7,55.5,31,55.5,27.8"/>
		<path fill="#FFFFFF" d="M76.7,33.4L73,33.6c-0.2-0.8-0.3-1.5-0.3-2.2h-0.2c-2,1.8-4.6,2.7-8,2.7c-1.8,0-3.4-0.5-4.7-1.6
			c-1.3-1.1-2-2.6-2-4.6c0-2.5,1-4.4,3.1-5.9c2.1-1.5,5.9-2.3,11.5-2.4c0-0.4,0.1-0.8,0.1-1.3c0-2-0.5-3.3-1.6-3.9
			c-1-0.7-2.6-1-4.7-1c-2.5,0-5,0.3-7.4,0.9l0.4-3.3c2.4-0.7,5.1-1,8.2-1c2.8,0,5,0.6,6.6,1.8c1.5,1.2,2.3,3.2,2.3,6
			c0,0.7,0,2.1-0.1,4.1c-0.1,2-0.1,3.3-0.1,3.9C76.1,28.6,76.3,31.2,76.7,33.4 M72.5,28.8c-0.1-2.4-0.1-4.6-0.1-6.5
			c-3,0-5.3,0.2-6.8,0.7c-2.6,0.8-3.9,2.3-3.9,4.6c0,2.2,1.5,3.2,4.6,3.2C68.8,30.7,70.9,30.1,72.5,28.8"/>
		<path fill="#FFFFFF" d="M95.1,34.1h-4.3c0.3-4.2,0.5-8.8,0.5-13.7c0-2.5-0.5-4.1-1.5-5c-1-0.9-2.4-1.3-4.3-1.3
			c-2.3,0-4.3,0.8-6.3,2.5c0,5.4,0,11.3,0.1,17.6h-4.3c0.3-5.4,0.4-9.3,0.4-11.7c0-3.7-0.3-7.3-1-10.8l4.2-0.6l0.5,2.9h0.2
			c2.4-2.1,4.9-3.2,7.6-3.2c2.6,0,4.7,0.6,6.1,1.8c1.4,1.2,2.2,3.3,2.2,6.2c0,0.3,0,0.9,0,1.8c0,0.9,0,1.5,0,1.8
			C95,24.9,95.1,28.8,95.1,34.1"/>
		<path fill="#FFFFFF" d="M80.2,49.7c0,4.5-1.4,8.5-4.3,11.9C73,65,69,66.7,64,66.7c-1.7,0-4.4-0.1-8.3-0.3C55.9,61.5,56,56,56,50.1
			c0-5.6-0.1-10.5-0.4-14.8h2.6c0.6,0,1.6,0,2.9-0.1c1.3,0,2.2-0.1,2.6-0.1c5.6,0,9.8,1.4,12.4,4.1C78.9,42.1,80.2,45.6,80.2,49.7
			 M76.1,50.8c0-3.5-1.1-6.5-3.4-8.9c-2.3-2.4-5.7-3.6-10.4-3.6c-0.7,0-1.6,0.1-2.7,0.2c0.1,3.7,0.2,7.5,0.2,11.4
			c0,4.3,0.1,8.7,0.3,13.1c1.3,0.3,2.5,0.4,3.7,0.4c4.2,0,7.3-1.2,9.4-3.7C75.1,57.3,76.1,54.3,76.1,50.8"/>
		<path fill="#FFFFFF" d="M97,47.2c0,0.5,0,1.3-0.1,2.2l-13,0.2c0.1,1.8,0.8,3.4,2.1,4.6c1.3,1.2,3,1.9,5.1,1.9
			c1.9,0,3.7-0.2,5.4-0.7l-0.3,2.7c-1.2,0.5-3,0.7-5.3,0.7c-3.3,0-5.8-0.9-7.5-2.7c-1.7-1.8-2.6-4-2.6-6.5c0-2.7,0.8-5.1,2.3-7.1
			c1.6-2,3.7-3,6.3-3c2.4,0,4.3,0.7,5.5,2.1C96.4,43.1,97,45,97,47.2 M93.9,47.2c0-3.5-1.5-5.3-4.4-5.3c-3,0-4.8,1.8-5.3,5.5
			L93.9,47.2z"/>
		<path fill="#FFFFFF" d="M100.5,56.8c0.2-4.6,0.3-9.7,0.3-15.3c0-6.4-0.2-11.7-0.7-15.8l4.8-0.2c-0.3,4.3-0.5,9.7-0.5,16
			c0,6.5,0.1,12.5,0.5,17.8"/>
		<path fill="#FFFFFF" d="M105,59.3h-4.6c0-0.8,0.1-1.6,0.1-2.5"/>
		<path fill="#FFFFFF" d="M110.9,69l-4.3-0.1c0.3-3.2,0.5-6.8,0.6-10.9c0.1-4.6-0.1-8.5-0.6-11.6l4.8-0.5c-0.3,3.3-0.4,7.4-0.5,12.2
			C110.7,61.9,110.7,65.5,110.9,69 M112.5,39.2c0,0.8-0.3,1.5-0.8,2.1c-0.5,0.6-1.3,0.9-2.2,0.8c-0.8,0-1.4-0.3-1.9-0.8
			c-0.4-0.5-0.7-1.2-0.6-1.9c0-0.8,0.3-1.5,0.9-2.1c0.6-0.6,1.3-0.9,2.3-0.8c0.8,0,1.4,0.3,1.8,0.8
			C112.3,37.9,112.5,38.5,112.5,39.2"/>
		<path fill="#FFFFFF" d="M61.9,45.9c-0.1,11.1,5.9,11.4,8,11.2c-0.4-3.1-1.8-7-5.1-7.2c-0.4,0,0.3-0.3,0.5-0.3c3.5,0.2,5,4,5.4,7.3
			l0.3-0.6C71,56.3,75.4,46.2,61.9,45.9"/>
	</g>
</g>
</svg>
