<!-- Generator: Adobe Illustrator 19.1.0, SVG Export Plug-In  -->
<svg version="1.1"
	 xmlns="http://www.w3.org/2000/svg" xmlns:xlink="http://www.w3.org/1999/xlink" xmlns:a="http://ns.adobe.com/AdobeSVGViewerExtensions/3.0/"
	 x="0px" y="0px" width="68.4px" height="41.9px" viewBox="0 0 68.4 41.9" enable-background="new 0 0 68.4 41.9"
	 xml:space="preserve">
<defs>
</defs>
<g>
	<polygon fill="#231F20" points="2.7,30.4 2.3,30.4 2.3,27.7 1,27.7 1,27.4 3.9,27.4 3.9,27.7 2.7,27.7 	"/>
	<path fill="#231F20" d="M9.4,30.4H9l1.6-3H11l1.6,3h-0.4l-0.4-0.8H9.9L9.4,30.4z M10,29.3h1.6l-0.8-1.6L10,29.3z"/>
	<polygon fill="#231F20" points="18.9,28.7 18.9,28.7 20.7,27.4 21.2,27.4 19.4,28.8 21.3,30.4 20.8,30.4 18.9,28.8 18.9,28.8 
		18.9,30.4 18.5,30.4 18.5,27.4 18.9,27.4 	"/>
	<polygon fill="#231F20" points="27.6,30.1 29.6,30.1 29.6,30.4 27.2,30.4 27.2,27.4 29.5,27.4 29.5,27.7 27.6,27.7 27.6,28.7 
		29.4,28.7 29.4,29 27.6,29 	"/>
	<path fill="#231F20" d="M1.4,35.5H0.9l1.6-3h0.4l1.6,3H4.1l-0.4-0.8H1.8L1.4,35.5z M1.9,34.4h1.6l-0.8-1.6L1.9,34.4z"/>
	<polygon fill="#231F20" points="10.6,35 10.6,35 11.5,32.5 12,32.5 12.9,35 12.9,35 13.8,32.5 14.2,32.5 13.1,35.5 12.7,35.5 
		11.8,32.9 11.7,32.9 10.8,35.5 10.4,35.5 9.3,32.5 9.7,32.5 	"/>
	<path fill="#231F20" d="M19.3,35.5h-0.4l1.6-3h0.4l1.6,3H22l-0.4-0.8h-1.9L19.3,35.5z M19.9,34.4h1.6l-0.8-1.6L19.9,34.4z"/>
	<polygon fill="#231F20" points="28.5,35.5 28.1,35.5 28.1,34.2 26.7,32.5 27.2,32.5 28.3,33.9 29.4,32.5 29.9,32.5 28.5,34.2 	"/>
	<polygon fill="#231F20" points="1.8,40.5 1.5,40.5 1.5,37.5 3.7,37.5 3.7,37.8 1.8,37.8 1.8,38.8 3.6,38.8 3.6,39.1 1.8,39.1 	"/>
	<path fill="#231F20" d="M10.5,40.6c-1.1,0-1.9-0.7-1.9-1.6c0-0.9,0.8-1.6,1.9-1.6c1.1,0,1.9,0.7,1.9,1.6
		C12.4,39.9,11.6,40.6,10.5,40.6 M10.5,37.7c-1,0-1.5,0.6-1.5,1.3c0,0.7,0.6,1.3,1.5,1.3c1,0,1.5-0.6,1.5-1.3
		C12,38.4,11.5,37.7,10.5,37.7"/>
	<path fill="#231F20" d="M19.3,40.6c-1.1,0-1.9-0.7-1.9-1.6c0-0.9,0.8-1.6,1.9-1.6c1.1,0,1.9,0.7,1.9,1.6
		C21.3,39.9,20.4,40.6,19.3,40.6 M19.3,37.7c-1,0-1.5,0.6-1.5,1.3c0,0.7,0.6,1.3,1.5,1.3c1,0,1.5-0.6,1.5-1.3
		C20.8,38.4,20.3,37.7,19.3,37.7"/>
	<path fill="#231F20" d="M26.4,37.5h1.2c0.9,0,2,0.5,2,1.5c0,1-1,1.5-2,1.5h-1.2V37.5z M26.8,40.3h0.7c1.1,0,1.7-0.6,1.7-1.2
		c0-0.6-0.5-1.2-1.7-1.2h-0.7V40.3z"/>
	<path fill="#49C3B1" d="M15.5,0c0,1.8-0.1,3.5-0.1,5.1c0,1.6,0,3.1,0,4.4c0,6.5-2.6,9.7-7.7,9.7c-1.3,0-2.5-0.2-3.4-0.6
		c-1-0.4-1.7-1-2.4-1.8c-0.6-0.8-1.1-1.8-1.3-3c-0.3-1.2-0.4-2.6-0.4-4.3c0-1.4,0-3,0-4.6C0.1,3.5,0,1.8,0,0h2.8
		C2.6,3.7,2.6,6.6,2.6,8.7c0,1.7,0.1,3.1,0.2,4.1c0.2,1.1,0.5,1.9,0.9,2.6c0.4,0.7,1,1.2,1.6,1.5c0.6,0.3,1.5,0.4,2.4,0.4
		c1,0,1.9-0.1,2.5-0.4c0.6-0.3,1.2-0.8,1.6-1.5c0.4-0.7,0.7-1.6,0.9-2.6c0.2-1.1,0.3-2.5,0.3-4.2c0-1,0-2.3-0.1-3.7
		c0-1.4-0.1-3.1-0.2-5H15.5z"/>
	<path fill="#939598" d="M23.9,5.4l-0.7,2.3c-0.8-0.3-1.5-0.4-2.1-0.4c-1.8,0-3,0.9-3.5,2.6c0,4.5,0,7.6,0.1,9.3h-2.6
		c0.2-3.1,0.2-5.4,0.2-7.1c0-2.3-0.2-4.5-0.7-6.6l2.5-0.4c0.2,1.1,0.3,1.8,0.3,2.1h0.1c1-1.5,2.3-2.3,3.7-2.3
		C22,4.9,22.9,5.1,23.9,5.4"/>
	<path fill="#B6BD00" d="M36.9,16.5c0,2.6-0.7,4.8-2.2,6.7c-1.5,1.9-3.5,2.9-6.1,2.9c-2.2,0-3.6-0.4-4.4-1.2h-0.1l-0.4,0.7H21
		c0.2-4.1,0.2-8.5,0.2-13.2c0-4.3-0.2-8.2-0.6-11.7l3.5-0.2C24,2.5,24,5.7,24,10.1h0.1c1.2-1.3,3-2,5.5-2c2.2,0,3.9,0.8,5.3,2.4
		C36.2,12.2,36.9,14.1,36.9,16.5 M33.7,16.9c0-1.8-0.5-3.3-1.4-4.5c-0.9-1.2-2.2-1.8-3.9-1.8c-2.1,0-3.6,0.6-4.6,1.9
		c0,4.2,0.1,7.6,0.3,10.2c1,0.8,2.2,1.2,3.7,1.2c1.9,0,3.4-0.7,4.4-2C33.3,20.5,33.7,18.8,33.7,16.9"/>
	<path fill="#FF5000" d="M46.6,20.3l-2.3,0.1c-0.1-0.5-0.2-0.9-0.2-1.3H44c-1.2,1.1-2.8,1.6-4.9,1.6c-1.1,0-2.1-0.3-2.9-1
		c-0.8-0.7-1.2-1.6-1.2-2.8c0-1.5,0.6-2.7,1.9-3.6c1.3-0.9,3.6-1.4,7-1.4c0-0.2,0-0.5,0-0.8c0-1.2-0.3-2-1-2.4
		c-0.6-0.4-1.6-0.6-2.9-0.6c-1.5,0-3,0.2-4.5,0.6l0.2-2C37.4,6.3,39.1,6,41,6c1.7,0,3.1,0.4,4,1.1c0.9,0.7,1.4,1.9,1.4,3.6
		c0,0.5,0,1.3-0.1,2.5c0,1.2-0.1,2-0.1,2.4C46.2,17.4,46.4,18.9,46.6,20.3 M44.1,17.5c0-1.5-0.1-2.8-0.1-4c-1.8,0-3.2,0.1-4.2,0.4
		c-1.6,0.5-2.4,1.4-2.4,2.8c0,1.3,0.9,2,2.8,2C41.8,18.7,43.1,18.3,44.1,17.5"/>
	<path fill="#939598" d="M57.8,20.7h-2.6c0.2-2.5,0.3-5.3,0.3-8.3c0-1.5-0.3-2.5-0.9-3.1C54,8.8,53.1,8.5,52,8.5
		c-1.4,0-2.6,0.5-3.8,1.5c0,3.3,0,6.9,0.1,10.7h-2.6c0.2-3.3,0.2-5.7,0.2-7.1c0-2.3-0.2-4.5-0.6-6.6l2.6-0.4l0.3,1.8h0.1
		c1.4-1.3,3-1.9,4.6-1.9c1.6,0,2.8,0.4,3.7,1.1c0.9,0.7,1.3,2,1.3,3.8c0,0.2,0,0.5,0,1.1c0,0.5,0,0.9,0,1.1
		C57.8,15.1,57.8,17.5,57.8,20.7"/>
	<path fill="#939598" d="M48.8,30.2c0,2.7-0.9,5.2-2.6,7.2c-1.8,2.1-4.2,3.1-7.3,3.1c-1,0-2.7-0.1-5-0.2c0.1-3,0.2-6.3,0.2-9.9
		c0-3.4-0.1-6.4-0.2-9h1.6c0.4,0,1,0,1.8,0c0.8,0,1.3,0,1.6,0c3.4,0,5.9,0.8,7.6,2.5C48,25.6,48.8,27.7,48.8,30.2 M46.3,30.9
		c0-2.1-0.7-3.9-2.1-5.4c-1.4-1.4-3.5-2.2-6.3-2.2c-0.4,0-1,0-1.7,0.1c0.1,2.3,0.1,4.6,0.1,7c0,2.6,0.1,5.3,0.2,8
		c0.8,0.2,1.5,0.2,2.2,0.2c2.6,0,4.5-0.8,5.7-2.3C45.6,34.8,46.3,33,46.3,30.9"/>
	<path fill="#939598" d="M59,28.7c0,0.3,0,0.8,0,1.3l-7.9,0.1c0.1,1.1,0.5,2.1,1.3,2.8c0.8,0.8,1.8,1.1,3.1,1.1
		c1.2,0,2.3-0.1,3.3-0.4l-0.2,1.6c-0.7,0.3-1.8,0.4-3.2,0.4c-2,0-3.5-0.5-4.5-1.6c-1-1.1-1.6-2.4-1.6-4c0-1.7,0.5-3.1,1.4-4.3
		c1-1.2,2.2-1.8,3.8-1.8c1.5,0,2.6,0.4,3.4,1.3C58.6,26.2,59,27.3,59,28.7 M57.1,28.7c0-2.1-0.9-3.2-2.7-3.2c-1.8,0-2.9,1.1-3.2,3.3
		L57.1,28.7z"/>
	<path fill="#B6BD00" d="M63.8,36H61c0.2-3.2,0.3-6.8,0.3-10.8c0-3.9-0.1-7.1-0.4-9.6l2.9-0.1c-0.2,2.6-0.3,5.9-0.3,9.7
		C63.5,29.2,63.6,32.8,63.8,36"/>
	<path fill="#FF5000" d="M67.4,41.9l-2.6-0.1c0.2-1.9,0.3-4.1,0.3-6.6c0.1-2.8-0.1-5.1-0.4-7l2.9-0.3c-0.2,2-0.3,4.5-0.3,7.4
		C67.3,37.6,67.3,39.8,67.4,41.9 M68.4,23.8c0,0.5-0.2,0.9-0.5,1.3c-0.3,0.4-0.8,0.5-1.4,0.5c-0.5,0-0.9-0.2-1.1-0.5
		C65.1,24.8,65,24.4,65,24c0-0.5,0.2-0.9,0.5-1.3c0.3-0.4,0.8-0.5,1.4-0.5c0.5,0,0.8,0.2,1.1,0.5C68.2,23,68.4,23.4,68.4,23.8"/>
	<path fill="#B6BD00" d="M37.6,27.9c-0.1,6.8,3.6,6.9,4.9,6.8c-0.3-1.9-1.1-4.2-3.1-4.4c-0.2,0,0.2-0.2,0.3-0.2
		c2.1,0.1,3,2.5,3.3,4.4l0.2-0.3C43.2,34.2,45.8,28.1,37.6,27.9"/>
</g>
</svg>
