<!-- Generator: Adobe Illustrator 19.1.0, SVG Export Plug-In  -->
<svg version="1.1"
	 xmlns="http://www.w3.org/2000/svg" xmlns:xlink="http://www.w3.org/1999/xlink" xmlns:a="http://ns.adobe.com/AdobeSVGViewerExtensions/3.0/"
	 x="0px" y="0px" width="64.4px" height="19.2px" viewBox="0 0 64.4 19.2" enable-background="new 0 0 64.4 19.2"
	 xml:space="preserve">
<defs>
</defs>
<g>
	<polygon fill-rule="evenodd" clip-rule="evenodd" fill="#EC1C24" points="0.7,9.3 24.4,9.3 21.6,19.2 0.7,19.2 0.7,9.3 	"/>
	<polygon fill-rule="evenodd" clip-rule="evenodd" fill="#2E3191" points="49.8,9.3 47,19.2 21.6,19.2 24.4,9.3 49.8,9.3 	"/>
	<path fill="#FFFFFF" d="M27.9,14c0.1-0.3,0.1-0.6,0.1-0.8c0-0.2,0-0.4-0.1-0.6c-0.1-0.2-0.1-0.3-0.2-0.4c-0.1-0.1-0.2-0.1-0.3-0.2
		c-0.1,0-0.2-0.1-0.4-0.1c-0.2,0-0.5,0.1-0.7,0.2c-0.2,0.1-0.4,0.3-0.6,0.5c-0.2,0.2-0.4,0.5-0.6,0.8c-0.2,0.3-0.3,0.7-0.4,1.2
		c-0.1,0.5-0.2,0.9-0.2,1.2c0,0.3,0,0.6,0.1,0.8c0.1,0.2,0.2,0.4,0.4,0.5c0.2,0.1,0.4,0.2,0.6,0.2c0.2,0,0.4,0,0.6-0.1
		c0.2-0.1,0.4-0.2,0.6-0.3c0.2-0.2,0.4-0.4,0.5-0.7c0.2-0.3,0.3-0.6,0.5-1.1c-0.3,0-0.6,0-0.8,0c-0.1,0.2-0.2,0.4-0.3,0.5
		c-0.1,0.2-0.2,0.3-0.3,0.4c-0.1,0.1-0.2,0.1-0.4,0.1c-0.2,0-0.3-0.1-0.4-0.2c-0.1-0.1-0.1-0.3-0.1-0.5c0-0.2,0-0.5,0.1-0.8
		c0.1-0.3,0.2-0.6,0.3-0.8c0.1-0.2,0.3-0.4,0.4-0.5c0.1-0.1,0.3-0.2,0.5-0.2c0.1,0,0.2,0,0.3,0.1c0.1,0.1,0.1,0.1,0.2,0.3
		c0,0.1,0,0.3,0,0.5C27.3,14,27.6,14,27.9,14L27.9,14z M28,14.7c-0.1,0.5-0.2,0.9-0.2,1.2c0,0.3,0,0.6,0.1,0.8
		c0.1,0.2,0.2,0.4,0.4,0.5c0.2,0.1,0.4,0.2,0.6,0.2c0.2,0,0.5-0.1,0.7-0.2c0.2-0.1,0.4-0.3,0.6-0.5c0.2-0.2,0.4-0.5,0.5-0.8
		c0.2-0.3,0.3-0.7,0.4-1.2c0.1-0.5,0.2-0.9,0.2-1.2c0-0.3,0-0.6-0.1-0.8c-0.1-0.2-0.2-0.4-0.4-0.5c-0.2-0.1-0.4-0.2-0.6-0.2
		c-0.2,0-0.5,0.1-0.7,0.2c-0.2,0.1-0.4,0.3-0.6,0.5c-0.2,0.2-0.4,0.5-0.5,0.8C28.3,13.8,28.1,14.2,28,14.7L28,14.7z M28.8,14.7
		c0.1-0.3,0.2-0.6,0.3-0.8c0.1-0.2,0.3-0.4,0.4-0.5c0.1-0.1,0.3-0.2,0.5-0.2c0.2,0,0.3,0.1,0.4,0.2c0.1,0.1,0.1,0.3,0.1,0.5
		c0,0.2,0,0.5-0.1,0.8c-0.1,0.3-0.2,0.6-0.3,0.8c-0.1,0.2-0.3,0.4-0.4,0.5c-0.1,0.1-0.3,0.2-0.5,0.2c-0.2,0-0.3-0.1-0.4-0.2
		c-0.1-0.1-0.1-0.3-0.1-0.5C28.7,15.3,28.8,15,28.8,14.7L28.8,14.7z M35,17.2c0.3,0,0.5,0,0.8,0c0.1-0.6,0.3-1.1,0.4-1.7
		c0.1-0.6,0.3-1.1,0.4-1.7c0.1-0.3,0.1-0.6,0.1-0.8c0-0.2,0-0.4-0.1-0.5c-0.1-0.1-0.1-0.2-0.2-0.3c-0.1-0.1-0.2-0.1-0.3-0.1
		c-0.2,0-0.4,0.1-0.6,0.2c-0.2,0.2-0.4,0.4-0.6,0.7c0-0.2,0-0.3-0.1-0.5c0-0.1-0.1-0.2-0.2-0.3c-0.1-0.1-0.2-0.1-0.4-0.1
		c-0.1,0-0.2,0-0.4,0.1c-0.1,0-0.2,0.1-0.3,0.2c-0.1,0.1-0.2,0.2-0.3,0.3c-0.1,0.1-0.2,0.2-0.2,0.3c0,0,0,0,0,0
		c0.1-0.2,0.1-0.5,0.2-0.7c-0.3,0-0.5,0-0.8,0c-0.2,0.8-0.4,1.6-0.6,2.5c-0.2,0.8-0.4,1.7-0.6,2.5c0.3,0,0.5,0,0.8,0
		c0.1-0.5,0.2-0.9,0.3-1.4c0.1-0.5,0.2-0.9,0.3-1.3c0-0.2,0.1-0.4,0.2-0.5c0.1-0.1,0.1-0.3,0.2-0.4c0.1-0.1,0.2-0.2,0.2-0.2
		c0.1,0,0.2-0.1,0.3-0.1c0.1,0,0.1,0,0.2,0c0.1,0,0.1,0.1,0.1,0.1c0,0.1,0,0.1,0.1,0.3c0,0.1,0,0.2-0.1,0.4c-0.1,0.5-0.2,1-0.4,1.5
		c-0.1,0.5-0.2,1-0.4,1.5c0.3,0,0.5,0,0.8,0c0.1-0.5,0.2-0.9,0.3-1.4c0.1-0.5,0.2-0.9,0.3-1.3c0-0.2,0.1-0.4,0.2-0.5
		c0.1-0.1,0.1-0.3,0.2-0.4c0.1-0.1,0.2-0.2,0.2-0.2c0.1,0,0.2-0.1,0.3-0.1c0.1,0,0.1,0,0.2,0c0.1,0,0.1,0.1,0.1,0.1
		c0,0.1,0.1,0.1,0.1,0.3c0,0.1,0,0.2-0.1,0.4c-0.1,0.5-0.2,1-0.3,1.5C35.2,16.2,35.1,16.7,35,17.2L35,17.2z M37.7,14.7
		c0.1-0.2,0.1-0.4,0.2-0.6c0.1-0.2,0.2-0.3,0.3-0.4c0.1-0.1,0.2-0.2,0.3-0.3c0.1-0.1,0.2-0.1,0.3-0.1c0.1,0,0.2,0,0.3,0.1
		c0.1,0.1,0.1,0.1,0.2,0.3c0,0.1,0.1,0.3,0.1,0.4c0,0.2,0,0.4-0.1,0.6c-0.1,0.2-0.1,0.4-0.2,0.6c-0.1,0.2-0.2,0.3-0.3,0.5
		c-0.1,0.1-0.2,0.2-0.3,0.3c-0.1,0.1-0.2,0.1-0.3,0.1c-0.1,0-0.2,0-0.3-0.1c-0.1-0.1-0.1-0.2-0.2-0.3c0-0.1-0.1-0.3-0.1-0.5
		C37.7,15.2,37.7,15,37.7,14.7L37.7,14.7z M36,19.1c0.3,0,0.6,0,0.8,0c0.1-0.4,0.2-0.8,0.3-1.2c0.1-0.4,0.2-0.8,0.3-1.2c0,0,0,0,0,0
		c0,0.2,0.1,0.3,0.1,0.4c0.1,0.1,0.2,0.2,0.3,0.3c0.1,0.1,0.2,0.1,0.4,0.1c0.2,0,0.4-0.1,0.6-0.2c0.2-0.1,0.4-0.3,0.6-0.5
		c0.2-0.2,0.3-0.5,0.5-0.8c0.1-0.3,0.3-0.7,0.3-1.1c0.1-0.4,0.1-0.8,0.1-1.1c0-0.3,0-0.6-0.1-0.8c-0.1-0.2-0.2-0.4-0.3-0.5
		c-0.2-0.1-0.3-0.2-0.5-0.2c-0.1,0-0.2,0-0.3,0.1c-0.1,0-0.2,0.1-0.4,0.2c-0.1,0.1-0.3,0.3-0.4,0.5c0,0,0,0,0,0
		c0.1-0.2,0.1-0.4,0.1-0.7c-0.3,0-0.5,0-0.8,0c-0.3,1.1-0.5,2.2-0.8,3.4C36.5,16.8,36.2,17.9,36,19.1L36,19.1z M40,17.2
		c0.3,0,0.5,0,0.8,0c0.1-0.4,0.2-0.7,0.2-1.1c0.1-0.4,0.2-0.7,0.2-1.1c0.1-0.3,0.2-0.6,0.3-0.8c0.1-0.2,0.2-0.4,0.4-0.5
		c0.1-0.1,0.3-0.2,0.5-0.2c0.1,0,0.1,0,0.2,0c0.1,0,0.1,0.1,0.2,0.1c0.1-0.5,0.2-1,0.3-1.5c0,0-0.1,0-0.1,0c0,0-0.1,0-0.1,0
		c-0.1,0-0.2,0-0.3,0.1c-0.1,0-0.2,0.1-0.3,0.2c-0.1,0.1-0.2,0.2-0.3,0.3c-0.1,0.1-0.2,0.3-0.3,0.5c0,0,0,0,0,0
		c0.1-0.3,0.1-0.6,0.2-1c-0.3,0-0.5,0-0.8,0c-0.2,0.8-0.4,1.6-0.5,2.5C40.4,15.5,40.2,16.3,40,17.2L40,17.2z M45,15.2
		c0,0.2-0.1,0.3-0.1,0.4c-0.1,0.1-0.1,0.3-0.2,0.3c-0.1,0.1-0.2,0.2-0.2,0.2c-0.1,0.1-0.2,0.1-0.3,0.1c-0.1,0-0.2,0-0.3,0
		c-0.1,0-0.2,0-0.3-0.1c-0.1-0.1-0.1-0.1-0.1-0.2c0-0.1,0-0.2,0-0.4c0-0.1,0.1-0.3,0.1-0.4c0-0.1,0.1-0.2,0.2-0.2
		c0.1,0,0.2-0.1,0.3-0.1c0.2,0,0.3-0.1,0.5-0.1c0.1,0,0.2,0,0.3-0.1c0.1,0,0.2-0.1,0.3-0.2C45,14.9,45,15,45,15.2L45,15.2z M44,13.7
		c0.1-0.2,0.1-0.3,0.2-0.4c0.1-0.1,0.1-0.2,0.2-0.2c0.1,0,0.1-0.1,0.2-0.1c0.1,0,0.1,0,0.2,0c0.2,0,0.3,0,0.4,0.1
		c0.1,0,0.1,0.1,0.2,0.2c0,0.1,0,0.2,0,0.3c0,0.1-0.1,0.2-0.1,0.3c0,0.1-0.1,0.1-0.1,0.2c-0.1,0-0.1,0-0.2,0.1
		c-0.3,0-0.6,0.1-0.9,0.1c-0.1,0-0.2,0-0.3,0.1c-0.1,0-0.2,0.1-0.3,0.2c-0.1,0.1-0.2,0.2-0.3,0.3c-0.1,0.1-0.2,0.3-0.2,0.4
		c-0.1,0.2-0.1,0.4-0.2,0.6c-0.1,0.3-0.1,0.5-0.1,0.7c0,0.2,0.1,0.4,0.1,0.5c0.1,0.1,0.2,0.2,0.3,0.3c0.1,0.1,0.3,0.1,0.4,0.1
		c0.1,0,0.2,0,0.3,0c0.1,0,0.2-0.1,0.3-0.1c0.1-0.1,0.2-0.1,0.3-0.2c0.1-0.1,0.2-0.2,0.3-0.4c0,0.1,0,0.2,0,0.3c0,0.1,0,0.2,0,0.3
		c0.3,0,0.5,0,0.8,0c0-0.1,0-0.3,0-0.4c0-0.2,0-0.4,0.1-0.6c0.1-0.4,0.2-0.8,0.2-1.2c0.1-0.4,0.2-0.8,0.2-1.2c0-0.2,0.1-0.4,0.1-0.5
		c0-0.2,0-0.3,0-0.5c0-0.1-0.1-0.3-0.2-0.4c-0.1-0.1-0.2-0.2-0.4-0.2C45.4,12.1,45.2,12,45,12c-0.1,0-0.3,0-0.4,0
		c-0.1,0-0.3,0.1-0.4,0.1c-0.1,0.1-0.3,0.2-0.4,0.3c-0.1,0.1-0.2,0.3-0.3,0.5c-0.1,0.2-0.2,0.5-0.3,0.8C43.4,13.7,43.7,13.7,44,13.7
		L44,13.7z"/>
	<path fill="#FFFFFF" d="M10.7,11.7c0.5,0,0.9,0,1.4,0c0.1,0,0.1,0,0.2,0c0.1,0,0.1,0.1,0.1,0.1c0,0.1,0.1,0.1,0.1,0.3
		c0,0.1,0,0.2-0.1,0.4c0,0.2-0.1,0.3-0.2,0.4c-0.1,0.1-0.1,0.2-0.2,0.3c-0.1,0.1-0.1,0.1-0.2,0.1c-0.1,0-0.1,0-0.2,0
		c-0.5,0-1,0-1.4,0C10.4,12.9,10.6,12.3,10.7,11.7L10.7,11.7z M9.4,12.5H0.7v0.8h8.5L9,13.8l-8.3,0v0.8h8.1L8.6,15H0.7v0.8h7.7
		l-0.2,0.5H0.7l0,0.8l7.2,0h0h0h0h0h0h0h0h0h0h0h0h0h0h0h0h0h0h0h0h0h0h0h0h0h0h0h0h0h0h0h0h0h0h0h0h0h0h0H9l0.8-2.5
		c0.4,0,0.9,0,1.3,0c0.1,0,0.2,0,0.2,0.1c0.1,0,0.1,0.1,0.1,0.2c0,0.1,0,0.2,0,0.4c0,0.2-0.1,0.3-0.1,0.6c-0.1,0.2-0.1,0.3-0.1,0.5
		c0,0.1-0.1,0.2-0.1,0.3c0,0.1,0,0.2,0,0.3c0,0.1,0,0.2,0,0.2c0.4,0,0.8,0,1.2,0c0-0.1,0-0.2,0-0.3c0-0.1,0-0.3,0.1-0.4
		c0-0.1,0.1-0.3,0.1-0.4c0-0.1,0.1-0.2,0.1-0.3c0-0.1,0.1-0.3,0.1-0.4c0-0.2,0.1-0.3,0.1-0.5c0-0.2,0-0.3,0-0.4c0-0.1,0-0.2-0.1-0.3
		c0-0.1-0.1-0.1-0.2-0.2c0,0,0,0,0,0c0.3-0.1,0.5-0.3,0.7-0.6c0.2-0.3,0.3-0.6,0.5-1c0-0.1,0.1-0.3,0.1-0.5c0-0.2,0-0.3,0-0.5
		c0-0.2,0-0.3-0.1-0.4c-0.1-0.1-0.1-0.2-0.3-0.3c-0.1-0.1-0.3-0.1-0.5-0.1c-1,0-1.9,0-2.9,0L9.4,12.5L9.4,12.5z M15.8,15.7
		c-0.1,0.2-0.3,0.4-0.5,0.5c-0.2,0.1-0.4,0.2-0.6,0.2c-0.2,0-0.3,0-0.4-0.1c-0.1-0.1-0.2-0.2-0.2-0.3c0-0.1-0.1-0.3-0.1-0.4
		c0-0.1,0-0.3,0.1-0.4c0,0,0,0,0,0c1,0,1.9,0,2.9,0c0-0.1,0-0.1,0-0.2c0.2-0.6,0.3-1.2,0.3-1.6c0-0.4-0.1-0.8-0.3-1
		c-0.2-0.2-0.5-0.4-1-0.4c-0.3,0-0.6,0.1-0.9,0.2c-0.3,0.1-0.5,0.3-0.8,0.5c-0.2,0.2-0.5,0.5-0.7,0.8c-0.2,0.3-0.4,0.8-0.5,1.2
		c-0.1,0.5-0.2,0.9-0.2,1.2c0,0.3,0,0.6,0.1,0.8c0.1,0.2,0.3,0.4,0.5,0.5c0.2,0.1,0.5,0.2,0.8,0.2c0.3,0,0.6-0.1,0.9-0.2
		c0.3-0.1,0.6-0.3,0.8-0.6c0.3-0.3,0.5-0.6,0.7-1C16.5,15.7,16.2,15.7,15.8,15.7L15.8,15.7z M14.5,14.1
		C14.5,14.1,14.5,14.1,14.5,14.1c0,0,0-0.1,0.1-0.2c0-0.1,0.1-0.2,0.2-0.3c0.1-0.1,0.2-0.2,0.3-0.3c0.1-0.1,0.2-0.2,0.4-0.3
		c0.1-0.1,0.3-0.1,0.4-0.1c0.1,0,0.3,0,0.3,0.1c0.1,0.1,0.2,0.1,0.2,0.2c0,0.1,0.1,0.2,0.1,0.3c0,0.1,0,0.2,0,0.3c0,0.1,0,0.2,0,0.2
		c0,0,0,0,0,0C15.8,14.1,15.1,14.1,14.5,14.1L14.5,14.1z M18.6,14.7c0.1-0.2,0.2-0.5,0.3-0.6c0.1-0.2,0.2-0.3,0.3-0.5
		c0.1-0.1,0.2-0.2,0.4-0.3c0.1-0.1,0.3-0.1,0.4-0.1c0.1,0,0.2,0,0.3,0.1c0.1,0.1,0.2,0.2,0.2,0.3c0,0.1,0.1,0.3,0.1,0.5
		c0,0.2,0,0.4-0.1,0.6c-0.1,0.2-0.2,0.5-0.3,0.6c-0.1,0.2-0.2,0.3-0.3,0.5c-0.1,0.1-0.2,0.2-0.4,0.3c-0.1,0.1-0.3,0.1-0.4,0.1
		c-0.1,0-0.2,0-0.3-0.1c-0.1-0.1-0.2-0.2-0.2-0.3c0-0.1-0.1-0.3-0.1-0.5C18.5,15.2,18.6,14.9,18.6,14.7L18.6,14.7z M19.8,17.2
		c0.3,0,0.6,0,1,0c0.3-1.1,0.7-2.3,1-3.4c0.3-1.1,0.7-2.3,1-3.4c-0.3,0-0.7,0-1,0c-0.1,0.4-0.2,0.8-0.4,1.2
		c-0.1,0.4-0.2,0.8-0.4,1.2c0,0,0,0,0,0c0-0.2-0.1-0.3-0.1-0.4c-0.1-0.1-0.2-0.2-0.3-0.3C20.5,12,20.3,12,20.1,12
		c-0.2,0-0.5,0.1-0.7,0.2c-0.2,0.1-0.5,0.3-0.7,0.5c-0.2,0.2-0.4,0.5-0.6,0.9c-0.2,0.3-0.3,0.7-0.5,1.1c-0.1,0.4-0.2,0.8-0.2,1.2
		c0,0.3,0,0.6,0.1,0.8c0.1,0.2,0.2,0.4,0.4,0.5c0.2,0.1,0.4,0.2,0.6,0.2c0.2,0,0.3,0,0.5-0.1c0.2,0,0.3-0.1,0.5-0.3
		c0.2-0.1,0.3-0.3,0.5-0.5c0,0,0,0,0,0C19.9,16.8,19.8,17,19.8,17.2L19.8,17.2z"/>
</g>
<g>
	<g>
		<g>
			<polygon fill="#0066B2" points="5.9,5.8 5,5.8 5.6,2.6 6.4,2.6 			"/>
			<path fill="#0066B2" d="M4.3,2.6L3.5,4.8L3.4,4.3l0,0L3.2,2.9c0,0,0-0.3-0.4-0.3H1.5l0,0.1c0,0,0.4,0.1,0.9,0.4L3,5.8h0.9
				l1.3-3.2H4.3z"/>
			<path fill="#0066B2" d="M10.9,5.8h0.8L11,2.6h-0.7c-0.3,0-0.4,0.2-0.4,0.2l-1.2,3h0.9l0.2-0.5h1.1L10.9,5.8z M10,4.7l0.4-1.2
				l0.2,1.2H10z"/>
			<path fill="#0066B2" d="M8.7,3.4l0.1-0.7c0,0-0.4-0.1-0.7-0.1c-0.4,0-1.4,0.2-1.4,1.1c0,0.8,1.2,0.8,1.2,1.3S6.8,5.2,6.5,5
				L6.4,5.7c0,0,0.4,0.2,0.9,0.2c0.6,0,1.4-0.3,1.4-1.1c0-0.8-1.2-0.9-1.2-1.3C7.6,3.1,8.4,3.2,8.7,3.4z"/>
		</g>
		<path fill="#F9A533" d="M3.4,4.3L3.2,2.9c0,0,0-0.3-0.4-0.3H1.5l0,0.1c0,0,0.6,0.1,1.2,0.6C3.3,3.8,3.4,4.3,3.4,4.3z"/>
	</g>
	<rect x="0.5" y="0.5" fill="none" stroke="#FFFFFF" stroke-miterlimit="10" width="11.8" height="7.6"/>
</g>
<g>
	<g>
		<path fill="#004A97" d="M58.5,4.6c1,0,1.8-0.8,1.8-1.7c0-1-0.9-1.8-1.8-1.8h-0.8c-1,0-1.8,0.7-1.8,1.8c0,1,0.8,1.7,1.8,1.7H58.5z"
			/>
		<path fill="#FFFFFF" d="M58.1,3.8V1.9c0.4,0.1,0.7,0.5,0.7,1C58.7,3.3,58.5,3.7,58.1,3.8 M56.7,2.9c0-0.4,0.3-0.8,0.7-1v1.9
			C57,3.7,56.7,3.3,56.7,2.9 M57.7,1.3c-0.9,0-1.6,0.7-1.6,1.6c0,0.9,0.7,1.6,1.6,1.6c0.9,0,1.6-0.7,1.6-1.6
			C59.3,2,58.6,1.3,57.7,1.3"/>
		<path fill="#231F20" d="M54.2,5.8C54.2,6,54.3,6,54.4,6c0.4,0,0.5-0.3,0.5-0.6c0-0.3-0.2-0.6-0.6-0.6c-0.1,0-0.1,0-0.1,0V5.8z
			 M54,5c0-0.2-0.1-0.2-0.2-0.2v0c0.1,0,0.1,0,0.2,0c0.1,0,0.2,0,0.3,0c0.5,0,0.7,0.3,0.7,0.6c0,0.2-0.1,0.6-0.8,0.6
			c-0.1,0-0.2,0-0.3,0c-0.1,0-0.2,0-0.2,0v0C53.9,6,54,6,54,5.9V5z"/>
		<path fill="#231F20" d="M55.4,4.9C55.3,4.9,55.3,4.9,55.4,4.9c-0.1-0.1,0-0.2,0-0.2C55.4,4.8,55.5,4.8,55.4,4.9
			C55.5,4.9,55.4,4.9,55.4,4.9 M55.2,6L55.2,6c0.1,0,0.1,0,0.1-0.1V5.5c0-0.1,0-0.1-0.1-0.1v0c0.1,0,0.2-0.1,0.2-0.1c0,0,0,0,0,0
			c0,0,0,0,0,0V6c0,0.1,0,0.1,0.1,0.1h0v0c-0.1,0-0.1,0-0.2,0C55.3,6.1,55.2,6.1,55.2,6L55.2,6z"/>
		<path fill="#231F20" d="M55.7,5.5c0-0.1,0-0.1-0.1-0.1v0c0.1,0,0.2-0.1,0.2-0.1c0,0,0,0,0,0v0.1c0.1-0.1,0.2-0.1,0.3-0.1
			c0.2,0,0.2,0.1,0.2,0.3V6c0,0.1,0,0.1,0.1,0.1h0v0c-0.1,0-0.1,0-0.2,0c-0.1,0-0.1,0-0.2,0v0h0c0.1,0,0.1,0,0.1-0.1V5.5
			c0-0.1-0.1-0.2-0.2-0.2c-0.1,0-0.2,0-0.2,0.1V6C55.9,6,55.9,6,56,6h0v0c-0.1,0-0.1,0-0.2,0c-0.1,0-0.1,0-0.2,0v0h0
			c0.1,0,0.1,0,0.1-0.1V5.5z"/>
		<path fill="#231F20" d="M57,5.5C57.1,5.5,57.1,5.5,57,5.5c0.1-0.1,0-0.2-0.1-0.2c-0.1,0-0.2,0.1-0.2,0.2H57z M56.7,5.6
			c0,0,0,0,0,0.1C56.7,5.8,56.8,6,57,6c0.1,0,0.2-0.1,0.3-0.1l0,0C57.1,6,57,6.1,56.9,6.1c-0.3,0-0.4-0.3-0.4-0.4
			c0-0.4,0.2-0.5,0.4-0.5c0.2,0,0.3,0.1,0.3,0.3c0,0,0,0,0,0l0,0H56.7z"/>
		<path fill="#231F20" d="M57.3,6L57.3,6c0.1,0,0.1,0,0.1-0.1V5.4c0-0.1-0.1-0.1-0.1-0.1v0c0.1-0.1,0.2-0.1,0.2-0.1c0,0,0,0,0,0v0.2
			h0c0-0.1,0.1-0.2,0.2-0.2c0,0,0.1,0,0.1,0.1c0,0.1,0,0.1-0.1,0.1c-0.1,0-0.1,0-0.1,0c0,0-0.1,0-0.1,0.2V6c0,0.1,0,0.1,0.1,0.1h0.1
			v0c-0.1,0-0.2,0-0.3,0C57.4,6.1,57.3,6.1,57.3,6L57.3,6z"/>
		<path fill="#231F20" d="M58,5.8C58,5.9,58.1,6,58.2,6c0.1,0,0.1-0.1,0.1-0.1c0-0.2-0.4-0.1-0.4-0.4c0-0.1,0.1-0.2,0.3-0.2
			c0.1,0,0.1,0,0.2,0.1l0,0.2h0c0-0.1-0.1-0.2-0.2-0.2c-0.1,0-0.1,0-0.1,0.1c0,0.2,0.4,0.1,0.4,0.4c0,0.1-0.1,0.3-0.3,0.3
			c-0.1,0-0.2,0-0.2-0.1L58,5.8L58,5.8z"/>
		<path fill="#231F20" d="M60.2,5.1L60.2,5.1c-0.1-0.2-0.2-0.3-0.4-0.3c-0.2,0-0.5,0.1-0.5,0.6c0,0.4,0.3,0.6,0.6,0.6
			c0.2,0,0.3-0.1,0.4-0.3l0,0l0,0.3c-0.1,0-0.3,0.1-0.4,0.1c-0.4,0-0.7-0.3-0.7-0.7c0-0.4,0.3-0.7,0.7-0.7c0.1,0,0.3,0,0.4,0.1
			L60.2,5.1z"/>
		<path fill="#231F20" d="M60.3,6L60.3,6c0.1,0,0.1,0,0.1-0.1v-1c0-0.1,0-0.1-0.1-0.1v0c0.1,0,0.2-0.1,0.2-0.1c0,0,0,0,0,0
			c0,0,0,0,0,0V6c0,0.1,0,0.1,0.1,0.1h0v0c-0.1,0-0.1,0-0.2,0C60.4,6.1,60.3,6.1,60.3,6L60.3,6z"/>
		<path fill="#231F20" d="M61.4,6C61.4,6,61.5,6,61.4,6c0.1,0,0.1,0,0.1,0v0c-0.1,0-0.2,0-0.3,0.1l0,0V5.9C61.2,6,61.1,6.1,61,6.1
			c-0.1,0-0.2-0.1-0.2-0.2V5.4c0,0,0-0.1-0.1-0.1v0c0.1,0,0.2,0,0.2,0c0,0,0,0,0,0.1v0.5c0,0.1,0,0.2,0.2,0.2c0.1,0,0.1,0,0.2-0.1
			V5.4c0,0-0.1-0.1-0.2-0.1v0c0.2,0,0.3,0,0.3,0c0,0,0,0,0,0V6z"/>
		<path fill="#231F20" d="M61.8,5.9C61.8,5.9,61.9,6,62,6c0.2,0,0.3-0.2,0.3-0.4c0-0.2-0.2-0.4-0.3-0.4c-0.1,0-0.1,0-0.2,0.1V5.9z
			 M61.8,5.4c0.1-0.1,0.2-0.1,0.3-0.1c0.2,0,0.3,0.2,0.3,0.4c0,0.2-0.2,0.5-0.4,0.5c-0.1,0-0.2,0-0.3-0.1l-0.1,0l0,0
			c0-0.1,0-0.2,0-0.3V4.9c0-0.1,0-0.1-0.1-0.1v0c0.1,0,0.2-0.1,0.2-0.1c0,0,0,0,0,0c0,0,0,0,0,0V5.4z"/>
		<path fill="#231F20" d="M53.8,7.1L53.8,7.1C53.9,7.1,53.9,7.1,53.8,7.1l0.1-0.6c0-0.1,0-0.1-0.1-0.1h0v0c0,0,0.1,0,0.1,0
			c0.1,0,0.1,0,0.2,0v0h0c0,0-0.1,0-0.1,0.1v0.5c0,0.1,0,0.1,0.1,0.1h0v0c0,0-0.1,0-0.2,0C53.9,7.2,53.9,7.2,53.8,7.1L53.8,7.1z"/>
		<path fill="#231F20" d="M54.1,7.2L54.1,7.2L54.1,7.2C54.1,7.1,54,7.1,54.1,7.2L54,6.6c0-0.1,0-0.1,0.1-0.1h0v0c0,0-0.1,0-0.2,0
			c0,0-0.1,0-0.1,0v0h0c0,0,0.1,0,0.1,0.1v0.5c0,0.1,0,0.1-0.1,0.1h0v0c0,0,0.1,0,0.1,0C54,7.2,54.1,7.2,54.1,7.2 M54.1,7.2
			c0,0-0.1,0-0.2,0c0,0-0.1,0-0.1,0h0v0v0v0h0h0c0,0,0.1,0,0.1-0.1V6.6c0,0,0-0.1-0.1-0.1h0v0v0h0c0,0,0.1,0,0.1,0
			c0.1,0,0.1,0,0.2,0h0v0v0h0h0c0,0-0.1,0-0.1,0.1L54.1,7.2C54,7.1,54.1,7.1,54.1,7.2L54.1,7.2L54.1,7.2L54.1,7.2L54.1,7.2z"/>
		<path fill="#231F20" d="M54.8,7L54.8,7l0-0.4c0-0.1-0.1-0.1-0.1-0.1h0v0c0,0,0.1,0,0.1,0c0,0,0.1,0,0.1,0v0h0c0,0-0.1,0-0.1,0.1
			v0.5c0,0,0,0.1,0,0.1h0l-0.5-0.6V7c0,0.1,0,0.1,0.1,0.1h0v0c0,0-0.1,0-0.1,0c0,0-0.1,0-0.1,0v0h0c0.1,0,0.1,0,0.1-0.1V6.6
			c0-0.1,0-0.1-0.1-0.1h0v0c0,0,0.1,0,0.1,0c0,0,0.1,0,0.1,0L54.8,7z"/>
		<path fill="#231F20" d="M54.8,7L54.8,7L54.8,7L54.8,7z M54.8,7L54.8,7L54.8,7z M54.8,7.2L54.8,7.2C54.9,7.2,54.9,7.1,54.8,7.2
			l0-0.6c0-0.1,0.1-0.1,0.1-0.1h0v0c0,0-0.1,0-0.1,0c0,0-0.1,0-0.1,0v0h0c0,0,0.1,0,0.1,0.1l0,0.4l0,0l0,0l-0.4-0.5c0,0-0.1,0-0.1,0
			c0,0-0.1,0-0.1,0l0,0h0c0,0,0.1,0,0.1,0.1V7c0,0.1,0,0.1-0.1,0.1l0,0v0c0,0,0.1,0,0.1,0c0,0,0.1,0,0.1,0v0h0c-0.1,0-0.1,0-0.1-0.1
			V6.6L54.8,7.2z M54.9,7.2L54.9,7.2l-0.6-0.6V7c0,0.1,0,0.1,0.1,0.1h0v0v0h0c0,0-0.1,0-0.1,0c0,0-0.1,0-0.1,0h0v0v0h0h0
			c0.1,0,0.1,0,0.1-0.1V6.6c0-0.1,0-0.1-0.1-0.1h0v0v0h0c0,0,0.1,0,0.1,0c0,0,0.1,0,0.1,0L54.8,7V6.6c0-0.1-0.1-0.1-0.1-0.1h0v0v0h0
			c0,0,0.1,0,0.1,0c0,0,0.1,0,0.1,0h0v0v0h0h0c0,0-0.1,0-0.1,0.1v0.5C54.9,7.1,54.9,7.2,54.9,7.2L54.9,7.2L54.9,7.2z"/>
		<path fill="#231F20" d="M55.1,6.5C55.1,6.5,55,6.5,55.1,6.5L55,6.6c0,0,0-0.1,0-0.1c0,0,0-0.1,0-0.1L55.1,6.5
			C55.1,6.5,55.1,6.5,55.1,6.5l0.5-0.1c0,0,0.1,0,0.1,0l0,0c0,0,0,0.1,0,0.1c0,0,0,0.1,0,0.1l0,0c0,0,0-0.1-0.1-0.1h-0.2v0.5
			c0,0.1,0,0.1,0.1,0.1h0v0c0,0-0.1,0-0.2,0c-0.1,0-0.1,0-0.2,0v0h0c0.1,0,0.1,0,0.1-0.1V6.5H55.1z"/>
		<path fill="#231F20" d="M55.5,7.2c0,0-0.1,0-0.2,0c-0.1,0-0.1,0-0.2,0h0v0v0h0h0c0.1,0,0.1,0,0.1-0.1V6.5h-0.2v0v0h0.2v0.5
			c0,0.1,0,0.1-0.1,0.1h0v0c0,0,0.1,0,0.2,0C55.4,7.2,55.5,7.2,55.5,7.2L55.5,7.2L55.5,7.2c-0.1,0-0.1,0-0.1-0.1V6.5h0.2
			c0.1,0,0.1,0.1,0.1,0.1l0,0c0,0,0-0.1,0-0.1c0,0,0-0.1,0-0.1l0,0c0,0,0,0-0.1,0h-0.5h0c0,0,0,0-0.1,0h0c0,0,0,0.1,0,0.1
			c0,0,0,0.1,0,0.1h0c0-0.1,0-0.1,0.1-0.1v0v0c-0.1,0-0.1,0-0.1,0.1l0,0h0h0l0,0c0,0,0-0.1,0-0.1c0,0,0-0.1,0-0.1v0h0h0l0,0
			c0,0,0,0,0.1,0h0h0.5c0,0,0,0,0.1,0l0,0l0,0l0,0l0,0c0,0,0,0.1,0,0.1c0,0,0,0.1,0,0.1v0l0,0l0,0l0,0c0,0,0-0.1-0.1-0.1h-0.2v0.5
			C55.4,7.1,55.5,7.1,55.5,7.2L55.5,7.2L55.5,7.2L55.5,7.2L55.5,7.2z"/>
		<path fill="#231F20" d="M55.7,7.1L55.7,7.1C55.8,7.1,55.8,7.1,55.7,7.1l0.1-0.6c0-0.1,0-0.1-0.1-0.1h0v0c0.1,0,0.2,0,0.3,0
			c0.1,0,0.2,0,0.3,0c0,0,0,0.1,0,0.2l0,0c0-0.1,0-0.1-0.1-0.1H56v0.3h0.1c0.1,0,0.1,0,0.1-0.1h0c0,0,0,0.1,0,0.1c0,0,0,0.1,0,0.1
			l0,0c0-0.1,0-0.1-0.1-0.1H56v0.2c0,0.1,0.1,0.1,0.1,0.1c0.1,0,0.2,0,0.2-0.1l0,0c0,0.1,0,0.1,0,0.2c-0.1,0-0.2,0-0.3,0
			C55.9,7.2,55.8,7.2,55.7,7.1L55.7,7.1z"/>
		<path fill="#231F20" d="M56.3,7.2c0-0.1,0-0.1,0-0.2l0,0c0,0.1-0.1,0.1-0.2,0.1c-0.1,0-0.1,0-0.1-0.1V6.8h0.1c0.1,0,0.1,0,0.1,0.1
			l0,0c0,0,0-0.1,0-0.1c0,0,0-0.1,0-0.1h0c0,0.1,0,0.1-0.1,0.1H56V6.5h0.1c0.1,0,0.1,0.1,0.1,0.1l0,0c0,0,0-0.1,0-0.1c0,0,0,0,0,0
			c-0.1,0-0.2,0-0.3,0s-0.2,0-0.2,0v0h0c0,0,0.1,0,0.1,0.1v0.5c0,0.1,0,0.1-0.1,0.1h0v0c0.1,0,0.2,0,0.3,0
			C56.1,7.2,56.2,7.2,56.3,7.2 M56.3,7.2c-0.1,0-0.2,0-0.3,0c-0.1,0-0.2,0-0.3,0h0v0v0v0h0h0c0,0,0.1,0,0.1-0.1V6.6
			c0,0,0-0.1-0.1-0.1h0v0v0h0c0.1,0,0.2,0,0.3,0c0.1,0,0.2,0,0.3,0h0l0,0c0,0,0,0,0,0.1c0,0,0,0.1,0,0.1l0,0l0,0l0,0l0,0
			c0-0.1,0-0.1-0.1-0.1H56l0,0.3h0.1c0.1,0,0.1,0,0.1-0.1l0,0h0h0v0c0,0,0,0.1,0,0.1c0,0,0,0.1,0,0.1v0l0,0l0,0l0,0
			c0-0.1,0-0.1-0.1-0.1H56v0.2c0,0.1,0.1,0.1,0.1,0.1c0.1,0,0.2,0,0.2-0.1l0,0l0,0l0,0l0,0C56.3,7.1,56.3,7.1,56.3,7.2L56.3,7.2
			L56.3,7.2z"/>
		<path fill="#231F20" d="M56.6,6.8L56.6,6.8c0.2,0,0.2,0,0.2-0.2c0-0.1-0.1-0.1-0.1-0.1c0,0,0,0-0.1,0V6.8z M56.4,6.6
			C56.4,6.5,56.4,6.5,56.4,6.6L56.4,6.6l-0.1-0.1c0,0,0.1,0,0.2,0c0.1,0,0.1,0,0.2,0c0.1,0,0.2,0,0.2,0.2c0,0.1-0.1,0.1-0.1,0.2
			l0.2,0.3c0,0,0,0.1,0.1,0.1v0c0,0-0.1,0-0.1,0c0,0-0.1,0-0.1,0c-0.1-0.1-0.1-0.2-0.2-0.3h-0.1v0.2c0,0.1,0,0.1,0.1,0.1h0v0
			c-0.1,0-0.1,0-0.2,0c0,0-0.1,0-0.1,0v0h0c0,0,0.1,0,0.1-0.1V6.6z"/>
		<path fill="#231F20" d="M56.6,6.8c0.1,0,0.2,0,0.2-0.2c0-0.1-0.1-0.1-0.1-0.1c0,0,0,0-0.1,0L56.6,6.8L56.6,6.8z M56.6,6.8
			L56.6,6.8l0-0.3l0,0c0,0,0,0,0.1,0c0.1,0,0.2,0.1,0.2,0.2C56.8,6.8,56.7,6.8,56.6,6.8L56.6,6.8z M56.6,6.8L56.6,6.8L56.6,6.8
			c0.1,0.1,0.2,0.2,0.3,0.3c0,0,0.1,0,0.1,0c0,0,0.1,0,0.1,0v0c0,0-0.1,0-0.1-0.1l-0.2-0.3l0,0c0.1,0,0.1-0.1,0.1-0.2
			c0-0.1-0.1-0.2-0.2-0.2c-0.1,0-0.1,0-0.2,0c-0.1,0-0.1,0-0.2,0v0h0c0,0,0.1,0,0.1,0.1v0.5c0,0,0,0.1-0.1,0.1h0v0c0,0,0.1,0,0.1,0
			c0.1,0,0.1,0,0.2,0v0h0c0,0-0.1,0-0.1-0.1L56.6,6.8L56.6,6.8z M57,7.2C57,7.2,57,7.2,57,7.2c-0.1,0-0.2,0-0.2,0
			c-0.1-0.1-0.1-0.2-0.2-0.3h-0.1v0.2c0,0.1,0,0.1,0.1,0.1h0v0v0h0c-0.1,0-0.1,0-0.2,0c0,0-0.1,0-0.1,0h0v0v0h0h0c0,0,0.1,0,0.1-0.1
			V6.6c0-0.1,0-0.1-0.1-0.1h0v0v0h0c0,0,0.1,0,0.2,0c0.1,0,0.1,0,0.2,0c0.1,0,0.2,0,0.2,0.2c0,0.1-0.1,0.1-0.1,0.2L57,7.2
			C57,7.1,57,7.1,57,7.2L57,7.2L57,7.2L57,7.2L57,7.2z"/>
		<path fill="#231F20" d="M57.7,7L57.7,7l0-0.4c0-0.1-0.1-0.1-0.1-0.1h0v0c0,0,0.1,0,0.1,0c0,0,0.1,0,0.1,0v0h0c0,0-0.1,0-0.1,0.1
			v0.5c0,0,0,0.1,0,0.1h0l-0.5-0.6V7c0,0.1,0,0.1,0.1,0.1h0v0c0,0-0.1,0-0.1,0c0,0-0.1,0-0.1,0v0h0c0.1,0,0.1,0,0.1-0.1V6.6
			c0-0.1,0-0.1-0.1-0.1h0v0c0,0,0.1,0,0.1,0c0,0,0.1,0,0.1,0L57.7,7z"/>
		<path fill="#231F20" d="M57.7,7L57.7,7L57.7,7L57.7,7z M57.7,7L57.7,7L57.7,7z M57.7,7.2L57.7,7.2C57.8,7.2,57.8,7.1,57.7,7.2
			l0-0.6c0-0.1,0.1-0.1,0.1-0.1h0v0c0,0-0.1,0-0.1,0c0,0-0.1,0-0.1,0v0h0c0,0,0.1,0,0.1,0.1l0,0.4l0,0l0,0l-0.4-0.5c0,0-0.1,0-0.1,0
			c0,0-0.1,0-0.1,0v0h0c0,0,0.1,0,0.1,0.1V7c0,0.1,0,0.1-0.1,0.1h0v0c0,0,0.1,0,0.1,0c0,0,0.1,0,0.1,0v0h0c-0.1,0-0.1,0-0.1-0.1V6.6
			L57.7,7.2z M57.8,7.2L57.8,7.2l-0.6-0.6V7c0,0.1,0,0.1,0.1,0.1h0v0v0h0c0,0-0.1,0-0.1,0c0,0-0.1,0-0.1,0h0v0v0h0h0
			c0.1,0,0.1,0,0.1-0.1V6.6c0-0.1,0-0.1-0.1-0.1h0v0v0h0c0,0,0.1,0,0.1,0c0,0,0.1,0,0.1,0L57.7,7V6.6c0-0.1-0.1-0.1-0.1-0.1h0v0v0h0
			c0,0,0.1,0,0.1,0c0,0,0.1,0,0.1,0h0v0v0h0h0c0,0-0.1,0-0.1,0.1v0.5C57.8,7.1,57.8,7.2,57.8,7.2L57.8,7.2L57.8,7.2z"/>
		<path fill="#231F20" d="M58.2,6.6L58.2,6.6l-0.1,0.3h0.2L58.2,6.6z M58,7C58,7.1,58,7.1,58,7c0,0.1,0,0.1,0.1,0.1h0v0
			c0,0-0.1,0-0.1,0c0,0-0.1,0-0.1,0v0h0C57.9,7.1,58,7.1,58,7l0.1-0.4c0,0,0-0.1,0-0.1c0,0,0.1,0,0.1,0c0,0,0,0,0,0c0,0,0,0,0,0
			c0,0,0,0,0,0L58.5,7c0,0,0,0.1,0,0.1c0,0,0,0,0.1,0h0v0c0,0-0.1,0-0.1,0c0,0-0.1,0-0.2,0v0h0c0,0,0.1,0,0.1,0c0,0,0,0,0-0.1l0-0.1
			h-0.2L58,7z"/>
		<path fill="#231F20" d="M58.2,6.6L58.2,6.6L58.2,6.6z M58.1,6.9h0.2l-0.1-0.3L58.1,6.9z M58.1,6.9l0.1-0.3h0h0v0l0,0l0,0v0h0
			l0.1,0.3H58.1z M58.3,7.2c0,0,0.1,0,0.1,0c0,0,0.1,0,0.1,0v0h0c0,0-0.1,0-0.1,0c0,0,0-0.1,0-0.1l-0.2-0.5c0,0,0,0,0,0c0,0,0,0,0,0
			h0c0,0,0,0,0,0c0,0-0.1,0-0.1,0c0,0,0,0.1,0,0.1L58,7.1c0,0-0.1,0.1-0.1,0.1h0v0c0,0,0.1,0,0.1,0c0,0,0.1,0,0.1,0v0h0
			c0,0-0.1,0-0.1,0c0,0,0,0,0-0.1l0,0l0,0l0-0.1h0.2l0,0.1C58.4,7.1,58.4,7.1,58.3,7.2C58.4,7.1,58.3,7.1,58.3,7.2L58.3,7.2
			L58.3,7.2z M58.6,7.2c0,0-0.1,0-0.1,0c0,0-0.1,0-0.2,0l0,0v0v0h0h0c0,0,0.1,0,0.1,0c0,0,0,0,0-0.1l0-0.1h-0.2l0,0.1
			c0,0,0,0.1,0,0.1c0,0,0,0,0.1,0h0v0v0l0,0c0,0-0.1,0-0.1,0c0,0-0.1,0-0.1,0l0,0v0v0h0h0c0,0,0.1,0,0.1-0.1l0.2-0.5
			c0,0,0-0.1,0-0.1c0,0,0.1,0,0.1,0c0,0,0,0,0,0c0,0,0,0,0,0c0,0,0,0,0,0L58.5,7C58.5,7,58.5,7.1,58.6,7.2
			C58.5,7.1,58.5,7.1,58.6,7.2L58.6,7.2L58.6,7.2L58.6,7.2L58.6,7.2z"/>
		<path fill="#231F20" d="M58.6,6.5C58.6,6.5,58.6,6.5,58.6,6.5l-0.1,0.1c0,0,0-0.1,0-0.1c0,0,0-0.1,0-0.1L58.6,6.5
			C58.6,6.5,58.6,6.5,58.6,6.5l0.5-0.1c0,0,0.1,0,0.1,0l0,0c0,0,0,0.1,0,0.1c0,0,0,0.1,0,0.1l0,0c0,0,0-0.1-0.1-0.1h-0.2v0.5
			c0,0.1,0,0.1,0.1,0.1h0v0c0,0-0.1,0-0.2,0c-0.1,0-0.1,0-0.2,0v0h0c0.1,0,0.1,0,0.1-0.1V6.5H58.6z"/>
		<path fill="#231F20" d="M59,7.2c0,0-0.1,0-0.2,0c-0.1,0-0.1,0-0.2,0h0v0v0h0h0c0.1,0,0.1,0,0.1-0.1V6.5h-0.2v0v0h0.2v0.5
			c0,0.1,0,0.1-0.1,0.1h0v0c0,0,0.1,0,0.2,0C58.9,7.2,59,7.2,59,7.2L59,7.2L59,7.2c-0.1,0-0.1,0-0.1-0.1V6.5h0.2
			c0.1,0,0.1,0.1,0.1,0.1l0,0c0,0,0-0.1,0-0.1c0,0,0-0.1,0-0.1l0,0c0,0,0,0-0.1,0h-0.5h0c0,0,0,0-0.1,0h0c0,0,0,0.1,0,0.1
			c0,0,0,0.1,0,0.1h0c0-0.1,0-0.1,0.1-0.1v0v0c-0.1,0-0.1,0-0.1,0.1l0,0h0h0l0,0c0,0,0-0.1,0-0.1c0,0,0-0.1,0-0.1v0h0h0l0,0
			c0,0,0,0,0.1,0h0h0.5c0,0,0,0,0.1,0l0,0l0,0l0,0l0,0c0,0,0,0.1,0,0.1c0,0,0,0.1,0,0.1v0l0,0l0,0l0,0c0,0,0-0.1-0.1-0.1h-0.2v0.5
			C58.9,7.1,59,7.1,59,7.2L59,7.2L59,7.2L59,7.2L59,7.2z"/>
		<path fill="#231F20" d="M59.2,7.1L59.2,7.1C59.3,7.1,59.3,7.1,59.2,7.1l0.1-0.6c0-0.1,0-0.1-0.1-0.1h0v0c0,0,0.1,0,0.1,0
			c0.1,0,0.1,0,0.2,0v0h0c0,0-0.1,0-0.1,0.1v0.5c0,0.1,0,0.1,0.1,0.1h0v0c0,0-0.1,0-0.2,0C59.3,7.2,59.3,7.2,59.2,7.1L59.2,7.1z"/>
		<path fill="#231F20" d="M59.5,7.2L59.5,7.2L59.5,7.2C59.5,7.1,59.5,7.1,59.5,7.2l-0.1-0.6c0-0.1,0-0.1,0.1-0.1h0v0
			c0,0-0.1,0-0.2,0c0,0-0.1,0-0.1,0v0h0c0,0,0.1,0,0.1,0.1v0.5c0,0.1,0,0.1-0.1,0.1h0v0c0,0,0.1,0,0.1,0C59.4,7.2,59.5,7.2,59.5,7.2
			 M59.6,7.2c0,0-0.1,0-0.2,0c0,0-0.1,0-0.1,0h0v0v0v0h0h0c0,0,0.1,0,0.1-0.1V6.6c0,0,0-0.1-0.1-0.1h0v0v0h0c0,0,0.1,0,0.1,0
			c0.1,0,0.1,0,0.2,0h0v0v0h0h0c0,0-0.1,0-0.1,0.1L59.6,7.2C59.5,7.1,59.5,7.1,59.6,7.2L59.6,7.2L59.6,7.2L59.6,7.2L59.6,7.2z"/>
		<path fill="#231F20" d="M60,7.1c0.2,0,0.2-0.2,0.2-0.3c0-0.1-0.1-0.3-0.2-0.3c-0.2,0-0.2,0.2-0.2,0.3C59.7,7,59.8,7.1,60,7.1
			 M60,6.5c0.2,0,0.4,0.1,0.4,0.3c0,0.2-0.2,0.4-0.4,0.4c-0.2,0-0.4-0.1-0.4-0.4C59.6,6.6,59.7,6.5,60,6.5"/>
		<path fill="#231F20" d="M59.7,6.8c0-0.1,0.1-0.3,0.2-0.3c0.2,0,0.3,0.2,0.3,0.3c0,0.1,0,0.3-0.2,0.3v0v0c0.2,0,0.2-0.2,0.2-0.3
			c0-0.1-0.1-0.3-0.2-0.3C59.8,6.5,59.7,6.7,59.7,6.8c0,0.2,0.1,0.3,0.3,0.3v0v0C59.8,7.1,59.7,7,59.7,6.8 M59.6,6.8
			c0-0.2,0.2-0.4,0.4-0.4v0v0C59.7,6.5,59.6,6.6,59.6,6.8c0,0.2,0.2,0.4,0.4,0.4c0.2,0,0.4-0.2,0.4-0.4c0-0.2-0.2-0.3-0.4-0.3v0v0
			c0.2,0,0.4,0.1,0.4,0.4c0,0.2-0.2,0.4-0.4,0.4C59.7,7.2,59.6,7,59.6,6.8"/>
		<path fill="#231F20" d="M61,7L61,7l0-0.4c0-0.1-0.1-0.1-0.1-0.1h0v0c0,0,0.1,0,0.1,0c0,0,0.1,0,0.1,0v0h0c0,0-0.1,0-0.1,0.1v0.5
			c0,0,0,0.1,0,0.1h0l-0.5-0.6V7c0,0.1,0,0.1,0.1,0.1h0v0c0,0-0.1,0-0.1,0c0,0-0.1,0-0.1,0v0h0c0.1,0,0.1,0,0.1-0.1V6.6
			c0-0.1,0-0.1-0.1-0.1h0v0c0,0,0.1,0,0.1,0c0,0,0.1,0,0.1,0L61,7z"/>
		<path fill="#231F20" d="M61,7L61,7L61,7L61,7z M61,7L61,7L61,7z M61,7.2L61,7.2C61.1,7.2,61.1,7.1,61,7.2l0-0.6
			c0-0.1,0.1-0.1,0.1-0.1h0v0c0,0-0.1,0-0.1,0c0,0-0.1,0-0.1,0v0h0c0,0,0.1,0,0.1,0.1L61,7l0,0l0,0l-0.4-0.5c0,0-0.1,0-0.1,0
			c0,0-0.1,0-0.1,0v0h0c0,0,0.1,0,0.1,0.1V7c0,0.1,0,0.1-0.1,0.1h0v0c0,0,0.1,0,0.1,0c0,0,0.1,0,0.1,0v0h0c-0.1,0-0.1,0-0.1-0.1V6.6
			L61,7.2z M61.1,7.2L61.1,7.2l-0.6-0.6V7c0,0.1,0,0.1,0.1,0.1h0v0v0h0c0,0-0.1,0-0.1,0c0,0-0.1,0-0.1,0h0v0v0h0h0
			c0.1,0,0.1,0,0.1-0.1V6.6c0-0.1,0-0.1-0.1-0.1h0v0v0h0c0,0,0.1,0,0.1,0c0,0,0.1,0,0.1,0L61,7V6.6c0-0.1-0.1-0.1-0.1-0.1h0v0v0h0
			c0,0,0.1,0,0.1,0c0,0,0.1,0,0.1,0h0v0v0h0h0c0,0-0.1,0-0.1,0.1v0.5C61.1,7.1,61.1,7.2,61.1,7.2L61.1,7.2L61.1,7.2z"/>
		<path fill="#231F20" d="M61.5,6.6L61.5,6.6l-0.1,0.3h0.2L61.5,6.6z M61.3,7C61.3,7.1,61.3,7.1,61.3,7c0,0.1,0,0.1,0.1,0.1h0v0
			c0,0-0.1,0-0.1,0c0,0-0.1,0-0.1,0v0h0C61.2,7.1,61.2,7.1,61.3,7l0.1-0.4c0,0,0-0.1,0-0.1c0,0,0.1,0,0.1,0c0,0,0,0,0,0c0,0,0,0,0,0
			c0,0,0,0,0,0L61.8,7c0,0,0,0.1,0,0.1c0,0,0,0,0.1,0h0v0c0,0-0.1,0-0.1,0c0,0-0.1,0-0.2,0v0h0c0,0,0.1,0,0.1,0c0,0,0,0,0-0.1l0-0.1
			h-0.2L61.3,7z"/>
		<path fill="#231F20" d="M61.5,6.6L61.5,6.6L61.5,6.6z M61.4,6.9h0.2l-0.1-0.3L61.4,6.9z M61.4,6.9l0.1-0.3h0h0v0l0,0l0,0v0h0
			l0.1,0.3H61.4z M61.6,7.2c0,0,0.1,0,0.1,0c0,0,0.1,0,0.1,0l0,0h0c0,0-0.1,0-0.1,0c0,0,0-0.1,0-0.1l-0.2-0.5c0,0,0,0,0,0
			c0,0,0,0,0,0h0c0,0,0,0,0,0c0,0-0.1,0-0.1,0c0,0,0,0.1,0,0.1l-0.2,0.5c0,0-0.1,0.1-0.1,0.1h0v0c0,0,0.1,0,0.1,0c0,0,0.1,0,0.1,0v0
			h0c0,0-0.1,0-0.1,0c0,0,0,0,0-0.1l0,0l0,0l0-0.1h0.2l0,0.1C61.7,7.1,61.7,7.1,61.6,7.2C61.7,7.1,61.6,7.1,61.6,7.2L61.6,7.2
			L61.6,7.2z M61.9,7.2c0,0-0.1,0-0.1,0c0,0-0.1,0-0.2,0l0,0v0v0h0h0c0,0,0.1,0,0.1,0c0,0,0,0,0-0.1l0-0.1h-0.2l0,0.1
			c0,0,0,0.1,0,0.1c0,0,0,0,0.1,0h0v0v0l0,0c0,0-0.1,0-0.1,0c0,0-0.1,0-0.1,0l0,0v0v0h0h0c0,0,0.1,0,0.1-0.1l0.2-0.5
			c0,0,0-0.1,0-0.1c0,0,0.1,0,0.1,0c0,0,0,0,0,0c0,0,0,0,0,0c0,0,0,0,0,0L61.8,7C61.8,7,61.8,7.1,61.9,7.2
			C61.8,7.1,61.8,7.1,61.9,7.2L61.9,7.2L61.9,7.2L61.9,7.2L61.9,7.2z"/>
		<path fill="#231F20" d="M62.1,7.1C62.1,7.1,62.2,7.1,62.1,7.1c0.1,0.1,0.1,0.1,0.2,0.1c0,0,0.1,0,0.1-0.1c0,0,0-0.1,0-0.1h0
			c0,0.1,0,0.1,0,0.2C62.4,7.2,62.3,7.2,62.1,7.1c0,0.1-0.1,0.1-0.2,0.1v0h0c0,0,0.1,0,0.1-0.1V6.6c0-0.1,0-0.1-0.1-0.1h0v0
			c0.1,0,0.1,0,0.2,0c0.1,0,0.1,0,0.2,0v0h0c0,0-0.1,0-0.1,0.1V7.1z"/>
		<path fill="#231F20" d="M62.4,7.2c0-0.1,0-0.1,0-0.2h0C62.4,7,62.4,7.1,62.4,7.2c0-0.1-0.1,0-0.1,0c0,0-0.1,0-0.1,0c0,0,0,0-0.1,0
			c0,0-0.1,0-0.1-0.1V6.6c0-0.1,0-0.1,0.1-0.1h0v0c0,0-0.1,0-0.1,0c-0.1,0-0.1,0-0.2,0v0h0c0,0,0.1,0,0.1,0.1v0.5
			c0,0.1,0,0.1-0.1,0.1h0v0c0.1,0,0.2,0,0.3,0C62.3,7.2,62.3,7.2,62.4,7.2 M62.4,7.2c-0.1,0-0.2,0-0.3,0c-0.1,0-0.2,0-0.3,0h0v0v0h0
			h0c0,0,0.1,0,0.1-0.1V6.6c0,0,0-0.1-0.1-0.1h0v0v0h0c0.1,0,0.1,0,0.2,0c0.1,0,0.1,0,0.2,0h0v0v0h0h0c0,0-0.1,0-0.1,0v0.5
			c0,0,0,0,0.1,0.1c0,0,0,0,0.1,0c0,0,0.1,0,0.1,0c0,0,0.1,0,0.1-0.1c0,0,0,0,0-0.1l0,0h0h0l0,0C62.5,7.1,62.5,7.1,62.4,7.2
			L62.4,7.2L62.4,7.2z"/>
		<path fill="#231F20" d="M62.4,6.5L62.4,6.5C62.5,6.5,62.5,6.5,62.4,6.5C62.5,6.5,62.5,6.5,62.4,6.5L62.4,6.5L62.4,6.5z M62.4,6.6
			L62.4,6.6C62.4,6.6,62.4,6.6,62.4,6.6L62.4,6.6c0-0.1,0-0.1,0-0.1v0h0.1C62.5,6.5,62.5,6.5,62.4,6.6C62.5,6.5,62.5,6.5,62.4,6.6
			L62.4,6.6c0.1,0,0.1,0,0.1,0v0H62.4C62.5,6.6,62.5,6.6,62.4,6.6L62.4,6.6L62.4,6.6C62.4,6.6,62.5,6.6,62.4,6.6L62.4,6.6L62.4,6.6z
			 M62.5,6.6C62.5,6.6,62.5,6.6,62.5,6.6c0.1-0.1,0-0.2,0-0.2S62.4,6.5,62.5,6.6C62.4,6.6,62.4,6.6,62.5,6.6 M62.5,6.4
			c0.1,0,0.1,0,0.1,0.1c0,0.1,0,0.1-0.1,0.1c-0.1,0-0.1,0-0.1-0.1C62.4,6.5,62.4,6.4,62.5,6.4"/>
	</g>
	<rect x="52.1" y="0.5" fill="none" stroke="#FFFFFF" stroke-miterlimit="10" width="11.8" height="7.6"/>
</g>
<g>
	<g>
		<path fill-rule="evenodd" clip-rule="evenodd" fill="#0072A5" d="M41.4,7.8L41.4,7.8C41.3,7.8,41.3,7.8,41.4,7.8
			C41.3,7.8,41.3,7.8,41.4,7.8L41.4,7.8L41.4,7.8h-0.1V7.7h0.1c0,0,0,0,0,0C41.3,7.7,41.3,7.7,41.4,7.8C41.3,7.7,41.3,7.8,41.4,7.8
			L41.4,7.8C41.3,7.8,41.3,7.8,41.4,7.8L41.4,7.8L41.4,7.8z M41.3,7.7C41.3,7.7,41.3,7.7,41.3,7.7L41.3,7.7L41.3,7.7L41.3,7.7
			C41.3,7.7,41.3,7.7,41.3,7.7L41.3,7.7L41.3,7.7z M41.4,7.7c0-0.1-0.1-0.1-0.1-0.1c-0.1,0-0.1,0.1-0.1,0.1c0,0.1,0.1,0.1,0.1,0.1
			C41.4,7.9,41.4,7.8,41.4,7.7L41.4,7.7L41.4,7.7z M41.4,7.7c0,0.1-0.1,0.1-0.1,0.1c-0.1,0-0.1,0-0.1-0.1c0-0.1,0-0.1,0.1-0.1
			C41.4,7.6,41.4,7.7,41.4,7.7L41.4,7.7z"/>
		<path fill-rule="evenodd" clip-rule="evenodd" fill="#0072A5" d="M49.1,5.4c0,0.2-0.1,0.3-0.3,0.3h-0.4V5.5h0.4c0,0,0.1,0,0.1,0
			c0,0,0,0,0-0.1c0,0,0-0.1,0-0.1c0,0,0,0-0.1,0c-0.2,0-0.4,0-0.4-0.3c0-0.1,0.1-0.3,0.3-0.3h0.4V5h-0.4c0,0-0.1,0-0.1,0
			c0,0,0,0,0,0.1c0,0,0,0.1,0,0.1c0,0,0.1,0,0.1,0h0.1c0.1,0,0.2,0,0.2,0.1C49.1,5.2,49.1,5.3,49.1,5.4L49.1,5.4L49.1,5.4z
			 M48.2,5.2c-0.1,0-0.1-0.1-0.2-0.1h-0.1c0,0-0.1,0-0.1,0c0,0,0,0,0-0.1c0,0,0,0,0-0.1c0,0,0,0,0.1,0h0.4V4.8h-0.4
			c-0.2,0-0.3,0.1-0.3,0.3c0,0.3,0.2,0.3,0.4,0.3c0,0,0.1,0,0.1,0c0,0,0,0,0,0.1c0,0,0,0,0,0.1c0,0,0,0-0.1,0h-0.4v0.2H48
			c0.2,0,0.3-0.1,0.3-0.3C48.3,5.3,48.3,5.2,48.2,5.2L48.2,5.2L48.2,5.2z M47.4,5.5h-0.5V5.3h0.5V5.1h-0.5V5h0.5V4.8h-0.7v0.9h0.7
			V5.5L47.4,5.5z M46.5,4.8c-0.1,0-0.2,0-0.3,0h-0.5v0.9H46V5.3h0.2c0.1,0,0.1,0,0.2,0c0,0,0,0.1,0,0.2v0.1h0.2V5.5
			c0-0.1,0-0.1,0-0.2c0,0-0.1-0.1-0.1-0.1c0.1,0,0.2-0.1,0.2-0.2C46.6,4.9,46.6,4.9,46.5,4.8L46.5,4.8L46.5,4.8z M45.3,4.8h-0.7
			l-0.3,0.3l-0.3-0.3h-0.8v0.9h0.8l0.3-0.3l0.3,0.3H45V5.4h0.3c0.2,0,0.4,0,0.4-0.3C45.7,4.8,45.5,4.8,45.3,4.8L45.3,4.8L45.3,4.8z
			 M46.3,5.1c0,0-0.1,0-0.1,0l-0.3,0V5h0.3c0,0,0.1,0,0.1,0C46.4,5,46.4,5,46.3,5.1C46.4,5.1,46.4,5.1,46.3,5.1L46.3,5.1L46.3,5.1z
			 M45.3,5.2H45V5h0.3c0.1,0,0.1,0,0.1,0.1C45.4,5.1,45.4,5.2,45.3,5.2L45.3,5.2L45.3,5.2z M44.5,5.2l0.3-0.3v0.7L44.5,5.2L44.5,5.2
			z M44,5.5h-0.5V5.3H44V5.1h-0.5V5H44l0.2,0.3L44,5.5L44,5.5z M48.5,4.1h-0.3l-0.4-0.7v0.7h-0.4L47.3,4h-0.4l-0.1,0.2h-0.2
			c-0.1,0-0.2,0-0.3-0.1c-0.1-0.1-0.1-0.2-0.1-0.3c0-0.1,0-0.2,0.1-0.3c0.1-0.1,0.2-0.1,0.3-0.1h0.2v0.2h-0.2c-0.1,0-0.1,0-0.2,0
			c0,0-0.1,0.1-0.1,0.2c0,0.1,0,0.2,0.1,0.2c0,0,0.1,0,0.1,0h0.1L47,3.3h0.3l0.4,0.8V3.3H48l0.4,0.6V3.3h0.2V4.1L48.5,4.1z
			 M46.1,3.3h-0.2v0.9h0.2V3.3L46.1,3.3z M45.6,3.3c-0.1,0-0.1,0-0.3,0h-0.5v0.9h0.2V3.8h0.2c0.1,0,0.1,0,0.2,0c0,0,0,0.1,0,0.2v0.1
			h0.2V4c0-0.1,0-0.1,0-0.2c0,0-0.1-0.1-0.1-0.1c0.1,0,0.2-0.1,0.2-0.2C45.7,3.4,45.7,3.3,45.6,3.3L45.6,3.3L45.6,3.3z M44.7,4h-0.5
			V3.8h0.5V3.6h-0.5V3.5h0.5V3.3H44v0.9h0.7V4L44.7,4z M43.9,3.3h-0.3l-0.3,0.6L43,3.3h-0.3v0.8l-0.4-0.8H42l-0.4,0.9h0.2L41.9,4
			h0.4l0.1,0.2h0.4V3.5l0.3,0.7h0.2l0.3-0.7v0.7h0.2V3.3L43.9,3.3z M47.3,3.8l-0.1-0.3L47,3.8H47.3L47.3,3.8z M45.4,3.6
			c0,0-0.1,0-0.1,0h-0.3V3.5h0.3c0,0,0.1,0,0.1,0C45.5,3.5,45.5,3.5,45.4,3.6C45.5,3.6,45.5,3.6,45.4,3.6L45.4,3.6L45.4,3.6z
			 M42,3.8l0.1-0.3l0.1,0.3H42L42,3.8z M49.1,0.5h-7.5v3.2l0.3-0.6h0.5l0.1,0.1V3.1h0.6l0.1,0.3l0.1-0.3h2c0.1,0,0.2,0,0.2,0.1V3.1
			h0.6v0.1c0.1-0.1,0.2-0.1,0.3-0.1h0.8l0.1,0.1V3.1h0.6l0.1,0.1V3.1h0.6v1.2h-0.6L48,4.1v0.2h-0.7l-0.1-0.2H47L47,4.3h-0.4
			c-0.2,0-0.3,0-0.3-0.1v0.1h-0.9V4c0,0,0,0,0,0h0v0.3h-1.8V4.2l-0.1,0.2h-0.4L43,4.2v0.2h-0.7l-0.1-0.2h-0.2L42,4.3h-0.4V8h7.5V5.8
			c-0.1,0-0.2,0.1-0.3,0.1h-0.5V5.8c-0.1,0-0.2,0.1-0.3,0.1h-1.7V5.5c0,0,0,0,0,0h0v0.3h-0.6V5.5c-0.1,0-0.2,0-0.3,0h-0.1v0.3h-0.7
			l-0.2-0.2l-0.2,0.2h-1.1V4.6h1.1l0.2,0.2l0.2-0.2h0.8c0.1,0,0.2,0,0.3,0.1V4.6h0.7c0.1,0,0.2,0,0.3,0.1V4.6h1v0.1
			c0.1,0,0.2-0.1,0.3-0.1h0.6v0.1c0.1,0,0.2-0.1,0.3-0.1h0.4V0.5L49.1,0.5z"/>
	</g>
	<rect x="39.8" y="0.5" fill="none" stroke="#FFFFFF" stroke-miterlimit="10" width="11.8" height="7.6"/>
</g>
<g>
	<g>
		<polygon fill-rule="evenodd" clip-rule="evenodd" fill="#A6A8AB" points="26.5,0.5 38.5,0.5 38.5,8 26.5,8 26.5,0.5 		"/>
		<polygon fill-rule="evenodd" clip-rule="evenodd" fill="#00477A" points="27.1,5 28.4,3 37.9,3 36.6,5 27.1,5 		"/>
		<polygon fill-rule="evenodd" clip-rule="evenodd" fill="#FFFFFF" points="27.5,4.9 28.6,3.2 28.9,3.2 28.9,4.3 29.6,3.2 29.9,3.2 
			29.9,4.9 29.6,4.9 29.6,3.7 28.9,4.9 28.6,4.9 28.6,3.7 27.9,4.9 27.5,4.9 		"/>
		<path fill-rule="evenodd" clip-rule="evenodd" fill="#FFFFFF" d="M30,4.9l0.7-1.6h0.2l0.7,1.6h-0.4l-0.2-0.4h-0.6l-0.2,0.4H30
			L30,4.9z M30.6,4.1H31l-0.2-0.4L30.6,4.1L30.6,4.1z"/>
		<path fill-rule="evenodd" clip-rule="evenodd" fill="#FFFFFF" d="M32.2,4c0,0.1,0,0.2,0,0.3c0.2,0,0.4,0,0.6,0
			c-0.2,0.4-1,0.3-1-0.3c0-0.6,0.7-0.7,1-0.3c0.1,0,0.3,0,0.4,0c-0.1-0.3-0.3-0.5-0.8-0.5c-0.5,0-0.9,0.4-0.9,0.8
			c0,0.5,0.4,0.9,0.9,0.9c0.4,0,0.9-0.3,0.8-0.9C32.9,4,32.5,4,32.2,4L32.2,4z"/>
		<polygon fill-rule="evenodd" clip-rule="evenodd" fill="#FFFFFF" points="33.4,4.9 33.7,4.9 33.7,3.8 34.4,4.9 34.7,4.9 34.7,3.2 
			34.4,3.2 34.4,4.4 33.7,3.2 33.4,3.2 33.4,4.9 		"/>
		<path fill-rule="evenodd" clip-rule="evenodd" fill="#FFFFFF" d="M35.3,4.4h0.5l0.2,0.4h0.4l-0.7-1.6h-0.2l-0.7,1.6h0.3L35.3,4.4
			L35.3,4.4z M35.6,3.7c0,0-0.2,0.4-0.2,0.4h0.3L35.6,3.7L35.6,3.7z"/>
		<polygon fill-rule="evenodd" clip-rule="evenodd" fill="#00477A" points="30,0.5 28.5,2.9 38,2.9 38.5,2 38.5,1.9 38,2.8 
			28.6,2.8 30,0.5 30,0.5 		"/>
		<path fill-rule="evenodd" clip-rule="evenodd" fill="#FFFFFF" d="M37,3.2c0.1,0,0.2,0.1,0.2,0.2c0,0.1-0.1,0.2-0.2,0.2
			c-0.1,0-0.2-0.1-0.2-0.2C36.8,3.3,36.9,3.2,37,3.2L37,3.2z M37,3.3c0.1,0,0.2,0.1,0.2,0.2c0,0.1-0.1,0.2-0.2,0.2
			c-0.1,0-0.2-0.1-0.2-0.2C36.8,3.4,36.9,3.3,37,3.3L37,3.3z"/>
		<path fill="#FFFFFF" d="M36.9,3.6V3.3H37c0,0,0,0,0,0c0,0,0,0,0,0c0,0,0,0,0,0c0,0,0,0,0,0c0,0,0,0,0,0c0,0,0,0,0,0c0,0,0,0,0,0
			l0,0.1h0l0,0c0,0,0,0,0,0C37,3.5,37,3.5,36.9,3.6C37,3.5,37,3.5,36.9,3.6C37,3.5,37,3.5,36.9,3.6L36.9,3.6L36.9,3.6L36.9,3.6
			L36.9,3.6z M37,3.4L37,3.4C37,3.4,37,3.4,37,3.4c0.1,0,0.1,0,0.1,0c0,0,0,0,0,0c0,0,0,0,0,0C37.1,3.4,37,3.4,37,3.4L37,3.4L37,3.4
			L37,3.4z"/>
	</g>
	<rect x="26.5" y="0.5" fill="none" stroke="#FFFFFF" stroke-miterlimit="10" width="11.8" height="7.6"/>
</g>
<g>
	<g>
		<polygon fill-rule="evenodd" clip-rule="evenodd" fill="#00336F" points="13.6,8 25.5,8 25.5,0.5 13.6,0.5 13.6,8 		"/>
		<path fill-rule="evenodd" clip-rule="evenodd" fill="#F9B41D" d="M19.5,6.6c0.6,0.5,1.3,0.8,2.2,0.8C23.5,7.5,25,6,25,4.2
			C25,2.4,23.5,1,21.7,1c-0.8,0-1.6,0.3-2.2,0.8c-0.7,0.6-1.1,1.5-1.1,2.4S18.9,6,19.5,6.6L19.5,6.6z"/>
		<path fill-rule="evenodd" clip-rule="evenodd" fill="#F9B41D" d="M24.5,6c0-0.1,0-0.1,0.1-0.1c0.1,0,0.1,0,0.1,0.1
			c0,0.1,0,0.1-0.1,0.1C24.6,6.1,24.5,6.1,24.5,6L24.5,6z M24.6,6.1C24.7,6.1,24.7,6.1,24.6,6.1c0.1-0.1,0-0.2,0-0.2
			C24.6,6,24.6,6,24.6,6.1C24.6,6.1,24.6,6.1,24.6,6.1L24.6,6.1z M24.6,6.1L24.6,6.1L24.6,6.1L24.6,6.1C24.6,6,24.7,6,24.6,6.1
			C24.7,6,24.7,6,24.6,6.1C24.7,6,24.7,6,24.6,6.1L24.6,6.1L24.6,6.1L24.6,6.1L24.6,6.1L24.6,6.1L24.6,6.1z M24.6,6L24.6,6
			C24.6,6,24.6,6,24.6,6C24.7,6,24.7,6,24.6,6C24.7,6,24.7,6,24.6,6C24.6,6,24.6,6,24.6,6L24.6,6L24.6,6L24.6,6z"/>
		<path fill-rule="evenodd" clip-rule="evenodd" fill="#E20025" d="M20.6,3.9c0-0.1,0-0.2-0.1-0.3h-2c0-0.1,0.1-0.2,0.1-0.3h1.8
			c0-0.1-0.1-0.2-0.1-0.3h-1.5c0.1-0.1,0.1-0.2,0.2-0.3h1.1C20,2.4,20,2.3,19.9,2.2h-0.7c0.1-0.1,0.2-0.2,0.3-0.3
			C19,1.3,18.2,1,17.3,1c-1.8,0-3.3,1.5-3.3,3.3c0,1.8,1.5,3.3,3.3,3.3c0.8,0,1.6-0.3,2.2-0.8l0,0c0.1-0.1,0.2-0.2,0.3-0.3h-0.7
			C19.1,6.2,19,6.1,19,6h1.1c0.1-0.1,0.1-0.2,0.2-0.3h-1.5c-0.1-0.1-0.1-0.2-0.1-0.3h1.8c0-0.1,0.1-0.2,0.1-0.3c0-0.1,0-0.2,0.1-0.3
			c0-0.1,0-0.2,0-0.3C20.6,4.1,20.6,4,20.6,3.9L20.6,3.9z"/>
		<path fill-rule="evenodd" clip-rule="evenodd" fill="#FFFFFF" d="M24.5,5c0-0.1,0-0.1,0.1-0.1c0.1,0,0.1,0,0.1,0.1
			c0,0.1,0,0.1-0.1,0.1C24.6,5.1,24.5,5,24.5,5L24.5,5z M24.6,5.1C24.7,5.1,24.7,5,24.6,5.1c0.1-0.1,0-0.2,0-0.2
			C24.6,4.9,24.6,4.9,24.6,5.1C24.6,5,24.6,5.1,24.6,5.1L24.6,5.1z M24.6,5L24.6,5L24.6,5L24.6,5C24.6,4.9,24.7,4.9,24.6,5
			C24.7,4.9,24.7,5,24.6,5C24.7,5,24.7,5,24.6,5L24.6,5L24.6,5L24.6,5L24.6,5L24.6,5L24.6,5z M24.6,5L24.6,5C24.6,5,24.6,5,24.6,5
			C24.7,5,24.7,5,24.6,5C24.7,5,24.7,5,24.6,5C24.6,5,24.6,5,24.6,5L24.6,5L24.6,5L24.6,5z"/>
		<path fill-rule="evenodd" clip-rule="evenodd" fill="#00336F" d="M18.4,5.2c-0.1,0-0.2,0-0.3,0c-0.2,0-0.3-0.1-0.3-0.3
			c0,0,0-0.1,0-0.1l0-0.1l0-0.1l0.2-0.9h0.3l0,0.2h0.2l-0.1,0.3h-0.2l-0.1,0.5c0,0,0,0,0,0.1c0,0.1,0,0.1,0.1,0.1c0,0,0.1,0,0.1,0
			L18.4,5.2L18.4,5.2z"/>
		<path fill-rule="evenodd" clip-rule="evenodd" fill="#00336F" d="M19.5,5.2c-0.1,0-0.2,0.1-0.4,0.1c-0.4,0-0.6-0.2-0.6-0.6
			c0-0.5,0.3-0.8,0.6-0.8c0.3,0,0.5,0.2,0.5,0.5c0,0.1,0,0.2,0,0.3h-0.7c0,0,0,0,0,0c0,0.2,0.1,0.2,0.3,0.2c0.1,0,0.2,0,0.4-0.1
			L19.5,5.2L19.5,5.2z M19.3,4.4C19.3,4.3,19.3,4.3,19.3,4.4c0-0.2-0.1-0.2-0.2-0.2c-0.1,0-0.2,0.1-0.2,0.2H19.3L19.3,4.4z"/>
		<polygon fill-rule="evenodd" clip-rule="evenodd" fill="#00336F" points="15.7,5.2 15.4,5.2 15.6,3.9 15.1,5.2 14.9,5.2 14.9,3.9 
			14.6,5.2 14.3,5.2 14.6,3.5 15.1,3.5 15.1,4.6 15.4,3.5 16,3.5 15.7,5.2 		"/>
		<path fill-rule="evenodd" clip-rule="evenodd" fill="#00336F" d="M16.6,4.6C16.5,4.6,16.5,4.6,16.6,4.6c-0.3,0-0.4,0.1-0.4,0.2
			c0,0.1,0.1,0.1,0.1,0.1C16.5,4.9,16.6,4.8,16.6,4.6L16.6,4.6z M16.9,5.2h-0.3l0-0.1c-0.1,0.1-0.2,0.2-0.4,0.2
			c-0.2,0-0.3-0.2-0.3-0.4c0-0.1,0-0.1,0-0.2c0.1-0.2,0.3-0.3,0.6-0.3c0,0,0.1,0,0.2,0c0,0,0-0.1,0-0.1c0-0.1-0.1-0.1-0.2-0.1
			c-0.1,0-0.2,0-0.3,0l0,0h0l0.1-0.3c0.2-0.1,0.3-0.1,0.4-0.1c0.3,0,0.5,0.1,0.5,0.4c0,0.1,0,0.1,0,0.3l-0.1,0.5l0,0.1L16.9,5.2
			L16.9,5.2L16.9,5.2L16.9,5.2z"/>
		<path fill-rule="evenodd" clip-rule="evenodd" fill="#00336F" d="M21.2,3.9c0.1,0,0.2,0,0.3,0.1l0.1-0.4c0,0,0,0-0.1,0l-0.1,0
			c0,0-0.1,0-0.2,0c-0.2,0-0.3,0-0.4,0.1c-0.1,0-0.1,0.1-0.2,0.2l0,0L20.2,4l0-0.1h-0.4l-0.2,1.3H20l0.1-0.7c0,0,0.1-0.1,0.1-0.1
			c0.1-0.1,0.1-0.1,0.2-0.1c0,0,0,0,0,0c0,0.1,0,0.2,0,0.3c0,0.4,0.2,0.7,0.6,0.7c0.1,0,0.2,0,0.3-0.1l0.1-0.4
			c-0.1,0.1-0.2,0.1-0.3,0.1c-0.2,0-0.3-0.1-0.3-0.4C20.8,4.1,20.9,3.9,21.2,3.9L21.2,3.9z"/>
		<path fill-rule="evenodd" clip-rule="evenodd" fill="#00336F" d="M24.2,3.5L24.1,4c-0.1-0.1-0.2-0.2-0.3-0.2
			c-0.2,0-0.4,0.1-0.5,0.3l0,0L23.1,4l0-0.1h-0.4l-0.2,1.3h0.4L23,4.5c0,0,0.1-0.1,0.1-0.1c0.1-0.1,0.1-0.1,0.2-0.1
			c0,0.1-0.1,0.2-0.1,0.4c0,0.3,0.2,0.6,0.4,0.6c0.1,0,0.2,0,0.3-0.2l0,0.1h0.3l0.3-1.7H24.2L24.2,3.5z M23.8,4.9
			c-0.1,0-0.2-0.1-0.2-0.3c0-0.3,0.1-0.5,0.3-0.5C24,4.2,24,4.2,24,4.4C24,4.7,23.9,4.9,23.8,4.9L23.8,4.9z"/>
		<path fill-rule="evenodd" clip-rule="evenodd" fill="#00336F" d="M22.1,4.6C22.1,4.6,22.1,4.6,22.1,4.6c-0.3,0-0.4,0.1-0.4,0.2
			c0,0.1,0.1,0.1,0.1,0.1C22.1,4.9,22.1,4.8,22.1,4.6L22.1,4.6z M22.4,5.2h-0.3l0-0.1c-0.1,0.1-0.2,0.2-0.4,0.2
			c-0.2,0-0.3-0.1-0.3-0.4c0-0.3,0.2-0.5,0.6-0.5c0,0,0.1,0,0.2,0c0,0,0-0.1,0-0.1c0-0.1-0.1-0.1-0.2-0.1c-0.1,0-0.2,0-0.3,0l-0.1,0
			h0l0.1-0.3c0.2-0.1,0.3-0.1,0.4-0.1c0.3,0,0.5,0.1,0.5,0.4c0,0.1,0,0.1,0,0.3l-0.1,0.5l0,0.1L22.4,5.2L22.4,5.2L22.4,5.2L22.4,5.2
			z"/>
		<path fill-rule="evenodd" clip-rule="evenodd" fill="#00336F" d="M17.6,4.1c0.1,0,0.2,0,0.3,0l0.1-0.3c-0.1,0-0.2,0-0.3,0
			c-0.4,0-0.5,0.2-0.5,0.5c0,0.2,0.1,0.3,0.3,0.4c0.1,0.1,0.2,0.1,0.2,0.1c0,0.1-0.1,0.1-0.2,0.1c-0.1,0-0.2,0-0.3-0.1l0,0.3h0
			l0.1,0c0,0,0.1,0,0.1,0c0.1,0,0.2,0,0.2,0c0.4,0,0.6-0.1,0.6-0.4c0-0.2-0.1-0.3-0.3-0.4c-0.1-0.1-0.2-0.1-0.2-0.1
			C17.4,4.2,17.5,4.1,17.6,4.1L17.6,4.1z"/>
		<path fill-rule="evenodd" clip-rule="evenodd" fill="#FFFFFF" d="M21.7,3.5l-0.1,0.4c-0.1-0.1-0.2-0.1-0.3-0.1
			c-0.3,0-0.5,0.3-0.5,0.6c0,0.2,0.1,0.4,0.3,0.4c0.1,0,0.2,0,0.3-0.1l-0.1,0.4c-0.1,0-0.2,0-0.3,0c-0.4,0-0.6-0.3-0.6-0.7
			c0-0.6,0.3-1,0.8-1c0.1,0,0.1,0,0.2,0L21.7,3.5C21.6,3.5,21.6,3.5,21.7,3.5L21.7,3.5z"/>
		<path fill-rule="evenodd" clip-rule="evenodd" fill="#FFFFFF" d="M20.6,3.7C20.5,3.7,20.5,3.7,20.6,3.7c-0.2,0-0.2,0.1-0.3,0.2
			l0-0.2h-0.3l-0.2,1.3h0.4c0.1-0.8,0.2-1,0.3-1c0,0,0,0,0,0C20.5,4,20.5,3.8,20.6,3.7L20.6,3.7L20.6,3.7z"/>
		<path fill-rule="evenodd" clip-rule="evenodd" fill="#FFFFFF" d="M18.5,5.1c-0.1,0-0.2,0-0.3,0C18.1,5.1,18,5,18,4.8
			c0,0,0-0.1,0-0.1l0-0.1l0-0.1l0.2-0.9h0.4l0,0.2h0.2l-0.1,0.3h-0.2l-0.1,0.6c0,0,0,0,0,0.1c0,0.1,0,0.1,0.1,0.1c0,0,0.1,0,0.1,0
			L18.5,5.1L18.5,5.1z"/>
		<path fill-rule="evenodd" clip-rule="evenodd" fill="#FFFFFF" d="M17.2,4.2c0,0.2,0.1,0.3,0.3,0.4c0.1,0.1,0.2,0.1,0.2,0.2
			c0,0.1-0.1,0.1-0.2,0.1c-0.1,0-0.2,0-0.3-0.1L17,5.1h0l0.1,0c0,0,0.1,0,0.1,0c0.1,0,0.2,0,0.2,0c0.4,0,0.5-0.1,0.5-0.4
			c0-0.2-0.1-0.3-0.2-0.4c-0.1-0.1-0.2-0.1-0.2-0.1c0-0.1,0.1-0.1,0.2-0.1c0.1,0,0.2,0,0.3,0L18,3.7c-0.1,0-0.2,0-0.3,0
			C17.3,3.7,17.2,3.9,17.2,4.2L17.2,4.2z"/>
		<path fill-rule="evenodd" clip-rule="evenodd" fill="#FFFFFF" d="M24.4,5.1H24l0-0.1c-0.1,0.1-0.2,0.1-0.3,0.1
			c-0.3,0-0.4-0.2-0.4-0.6c0-0.4,0.3-0.8,0.6-0.8c0.1,0,0.2,0.1,0.3,0.2l0.1-0.5h0.4L24.4,5.1L24.4,5.1z M23.9,4.8
			c0.2,0,0.3-0.2,0.3-0.5c0-0.2-0.1-0.3-0.2-0.3c-0.2,0-0.3,0.2-0.3,0.5C23.7,4.7,23.7,4.8,23.9,4.8L23.9,4.8z"/>
		<path fill-rule="evenodd" clip-rule="evenodd" fill="#FFFFFF" d="M19.6,5.1c-0.1,0-0.2,0.1-0.4,0.1c-0.4,0-0.6-0.2-0.6-0.6
			c0-0.5,0.3-0.8,0.6-0.8c0.3,0,0.5,0.2,0.5,0.5c0,0.1,0,0.2,0,0.3H19c0,0,0,0,0,0c0,0.2,0.1,0.2,0.3,0.2c0.1,0,0.2,0,0.4-0.1
			L19.6,5.1L19.6,5.1z M19.4,4.3C19.4,4.2,19.4,4.2,19.4,4.3c0-0.2-0.1-0.2-0.2-0.2C19.1,4,19,4.1,19,4.3H19.4L19.4,4.3z"/>
		<polygon fill-rule="evenodd" clip-rule="evenodd" fill="#FFFFFF" points="15.8,5.1 15.5,5.1 15.7,3.8 15.2,5.1 15,5.1 15,3.8 
			14.7,5.1 14.4,5.1 14.7,3.4 15.2,3.4 15.2,4.5 15.5,3.4 16.1,3.4 15.8,5.1 		"/>
		<path fill-rule="evenodd" clip-rule="evenodd" fill="#FFFFFF" d="M16.7,4.5C16.7,4.5,16.6,4.5,16.7,4.5c-0.3,0-0.4,0.1-0.4,0.2
			c0,0.1,0.1,0.1,0.1,0.1C16.6,4.8,16.7,4.7,16.7,4.5L16.7,4.5z M16.9,5.1h-0.3l0-0.1c-0.1,0.1-0.2,0.2-0.4,0.2
			C16.1,5.1,16,5,16,4.7c0-0.3,0.2-0.5,0.6-0.5c0,0,0.1,0,0.1,0c0,0,0-0.1,0-0.1c0-0.1-0.1-0.1-0.2-0.1c-0.1,0-0.2,0-0.3,0l-0.1,0
			l0,0l0.1-0.3c0.2-0.1,0.3-0.1,0.4-0.1c0.3,0,0.5,0.1,0.5,0.4c0,0.1,0,0.1,0,0.3L17,4.8l0,0.1L16.9,5.1L16.9,5.1L16.9,5.1L16.9,5.1
			z"/>
		<path fill-rule="evenodd" clip-rule="evenodd" fill="#FFFFFF" d="M22.3,4.5C22.2,4.5,22.2,4.5,22.3,4.5c-0.3,0-0.4,0.1-0.4,0.2
			c0,0.1,0.1,0.1,0.1,0.1C22.1,4.8,22.2,4.7,22.3,4.5L22.3,4.5z M22.5,5.1h-0.3l0-0.1c-0.1,0.1-0.2,0.2-0.4,0.2
			c-0.2,0-0.3-0.1-0.3-0.4c0-0.3,0.2-0.5,0.6-0.5c0,0,0.1,0,0.1,0c0,0,0-0.1,0-0.1c0-0.1-0.1-0.1-0.2-0.1c-0.1,0-0.2,0-0.3,0l-0.1,0
			l0,0l0.1-0.3c0.2-0.1,0.3-0.1,0.4-0.1c0.3,0,0.5,0.1,0.5,0.4c0,0.1,0,0.1,0,0.3l-0.1,0.5l0,0.1L22.5,5.1L22.5,5.1L22.5,5.1
			L22.5,5.1z"/>
		<path fill-rule="evenodd" clip-rule="evenodd" fill="#FFFFFF" d="M23.5,3.7C23.4,3.7,23.4,3.7,23.5,3.7c-0.1,0-0.2,0.1-0.3,0.2
			l0-0.2h-0.3l-0.2,1.3H23c0.1-0.8,0.2-1,0.3-1c0,0,0,0,0,0C23.4,4,23.4,3.8,23.5,3.7L23.5,3.7L23.5,3.7z"/>
	</g>
	<rect x="13.7" y="0.5" fill="none" stroke="#FFFFFF" stroke-miterlimit="10" width="11.8" height="7.6"/>
</g>
</svg>
