<!-- Generator: Adobe Illustrator 19.1.0, SVG Export Plug-In  -->
<svg version="1.1"
	 xmlns="http://www.w3.org/2000/svg" xmlns:xlink="http://www.w3.org/1999/xlink" xmlns:a="http://ns.adobe.com/AdobeSVGViewerExtensions/3.0/"
	 x="0px" y="0px" width="65.9px" height="37.3px" viewBox="0 0 65.9 37.3" enable-background="new 0 0 65.9 37.3"
	 xml:space="preserve">
<defs>
</defs>
<g>
	<path d="M0,4.8h3.2l2.5,9.7l2.4-9.2h2.6l2.5,9.2l2.5-9.7h3.2l-4.1,13.9h-2.9L9.4,9.3L7,18.7H4.1L0,4.8z"/>
	<path d="M20.4,12.9c0.2,2.2,2.1,3.5,4,3.4c1.6,0,2.7-0.7,3.3-1.9h3.4c-0.7,1.5-1.6,2.7-2.8,3.5c-1.2,0.8-2.5,1.2-4,1.2
		c-4.3,0-7.3-3.5-7.3-7.3c0-4,3.1-7.4,7.3-7.4c2.1,0,3.9,0.8,5.2,2.1c1.7,1.7,2.3,3.9,2.1,6.4H20.4z M28.4,10.4
		c-0.1-1.3-1.5-3.2-4-3.1c-2.5,0-3.8,1.8-3.9,3.1H28.4z"/>
	<path d="M31.1,0h3.3v4.9v1.7c1.4-1.7,3.4-2.2,4.6-2.2c3.3,0,6.9,2.4,6.9,7.3c0,4.7-3.3,7.4-7.1,7.4c-2.2,0-3.9-1.1-4.6-2.4v2h-3.2
		V0z M42.7,11.8c0-2.3-1.7-4.3-4.2-4.3c-2.6,0-4.2,2-4.2,4.3c0,2.3,1.6,4.3,4.1,4.3C41.2,16.1,42.7,13.9,42.7,11.8L42.7,11.8z"/>
</g>
<g>
	<g>
		<path fill="#FFFFFF" d="M4.1,18.5h3.1v2c1-1.4,2.6-2.5,4.9-2.5c4.9,0,6.9,4.1,6.9,7.5c0,4-2.8,7.3-6.9,7.3c-2.7,0-4.2-1.4-4.7-2.3
			v1.8v4.9H4.1V18.5z M15.7,25.4c0-2-1.4-4.3-4.3-4.3c-1.2,0-2.3,0.5-3,1.3c-0.7,0.8-1.2,1.8-1.2,3.1c0,1.2,0.5,2.3,1.2,3
			c0.8,0.8,1.8,1.2,3,1.2C14,29.7,15.7,27.7,15.7,25.4L15.7,25.4z"/>
		<path fill="#FFFFFF" d="M33.4,32.4h-3.3v-2c-0.9,1.6-2.7,2.4-4.7,2.4c-4.5,0-7.1-3.5-7.1-7.4c0-4.4,3.2-7.4,7.1-7.4
			c2.5,0,4.1,1.3,4.7,2.5v-2h3.3V32.4z M21.6,25.5c0,1.7,1.2,4.2,4.2,4.2c1.8,0,3.1-1,3.7-2.2c0.3-0.6,0.5-1.3,0.5-2
			c0-0.7-0.1-1.3-0.4-2c-0.6-1.3-1.9-2.5-3.9-2.5C23.2,21.1,21.6,23.3,21.6,25.5L21.6,25.5z"/>
		<path fill="#FFFFFF" d="M37.4,31.9l-5.2-13.4h3.5l3.4,9.2l3.3-9.2H46l-7.3,18.8h-3.5L37.4,31.9z"/>
	</g>
</g>
<g>
	<path fill="#FF0005" d="M58.6,11.5c-1.2-1.2-3.1-1.2-4.2,0l-4.9,4.9c-1.2,1.2-2.1,2.1-2.1,2.1s0,1.4,0,3v4.7c0,1.7,1.4,3,3,3H55
		c1.7,0,4-1,5.1-2.1l4.9-4.9c1.2-1.2,1.2-3.1,0-4.2L58.6,11.5z"/>
</g>
<g>
	<path fill="#FFFFFF" d="M48.7,19.3h0.8v0.8c0.3-0.5,0.9-0.9,1.7-0.9c1.5,0,2.3,1.3,2.3,2.4c0,1.3-0.9,2.4-2.3,2.4
		c-0.9,0-1.5-0.5-1.7-0.9v0.7v1.6h-0.9V19.3z M52.7,21.5c0-0.7-0.5-1.6-1.6-1.6c-0.4,0-0.8,0.2-1.1,0.5c-0.3,0.3-0.4,0.7-0.4,1.1
		c0,0.4,0.2,0.8,0.4,1.1c0.3,0.3,0.7,0.5,1.1,0.5C52,23.1,52.7,22.4,52.7,21.5L52.7,21.5z"/>
	<path fill="#FFFFFF" d="M53.8,17.7h0.9v6.1h-0.9V17.7z"/>
	<path fill="#FFFFFF" d="M59.3,23.8h-0.8v-0.7c-0.2,0.5-0.7,0.8-1.5,0.8c-1.4,0-1.8-1.1-1.8-2v-2.6H56v2.4c0,0.8,0.3,1.4,1.2,1.4
		c0.8,0,1.2-0.5,1.2-1.3v-2.5h0.9V23.8z"/>
	<path fill="#FFFFFF" d="M61.8,20.5c0-0.3-0.2-0.6-0.7-0.6c-0.4,0-0.7,0.3-0.6,0.6c0,0.4,0.3,0.5,0.8,0.7c0.7,0.2,1.4,0.4,1.5,1.4
		c0,0.9-0.7,1.5-1.6,1.5c-0.7,0-1.6-0.4-1.6-1.4h0.9c0,0.5,0.5,0.7,0.8,0.7c0.4,0,0.7-0.3,0.7-0.7c0-0.4-0.3-0.6-1.1-0.9
		c-0.6-0.2-1.1-0.5-1.1-1.2c0-0.9,0.7-1.4,1.5-1.4c0.6,0,1.4,0.3,1.5,1.3H61.8z"/>
</g>
</svg>
