<!-- Generator: Adobe Illustrator 19.1.0, SVG Export Plug-In  -->
<svg version="1.1"
	 xmlns="http://www.w3.org/2000/svg" xmlns:xlink="http://www.w3.org/1999/xlink" xmlns:a="http://ns.adobe.com/AdobeSVGViewerExtensions/3.0/"
	 x="0px" y="0px" width="21.8px" height="21.8px" viewBox="0 0 21.8 21.8" enable-background="new 0 0 21.8 21.8"
	 xml:space="preserve">
<defs>
</defs>
<g opacity="0.5">
	<path fill="#7A828D" d="M21.5,20.2L16.3,15c1.3-1.6,2.1-3.6,2.1-5.8c0-5.1-4.1-9.2-9.2-9.2S0,4.1,0,9.2s4.1,9.2,9.2,9.2
		c2.2,0,4.2-0.8,5.8-2.1l5.2,5.2c0.4,0.4,0.9,0.4,1.3,0C21.9,21.2,21.9,20.6,21.5,20.2z M9.2,16.5c-4.1,0-7.4-3.3-7.4-7.3
		s3.3-7.4,7.4-7.4s7.4,3.3,7.4,7.4S13.2,16.5,9.2,16.5z"/>
</g>
</svg>
